<?xml version="1.0" encoding="utf-8"?>
<!-- Generator: Adobe Illustrator 16.0.0, SVG Export Plug-In . SVG Version: 6.00 Build 0)  -->
<!DOCTYPE svg PUBLIC "-//W3C//DTD SVG 1.0//EN" "http://www.w3.org/TR/2001/REC-SVG-20010904/DTD/svg10.dtd">
<svg version="1.0" id="Layer_1" xmlns="http://www.w3.org/2000/svg" xmlns:xlink="http://www.w3.org/1999/xlink" x="0px" y="0px"
	 width="340.16px" height="490.394px" viewBox="0 0 340.16 490.394" style="enable-background:new 0 0 340.16 490.394;"
	 xml:space="preserve">
<g>
	<rect x="0" y="377.197" style="fill:none;" width="340.16" height="55.835"/>
	<path style="fill:#444444;" d="M4.594,389.357H3.789v-10.672H0.078v-0.75h8.227v0.75H4.594V389.357z"/>
	<path style="fill:#444444;" d="M15.726,389.357v-5.508c0-0.854-0.18-1.476-0.539-1.863s-0.917-0.582-1.672-0.582
		c-1.016,0-1.759,0.257-2.23,0.77c-0.472,0.513-0.707,1.345-0.707,2.496v4.688H9.804v-12.156h0.773v3.867l-0.039,1.086h0.055
		c0.317-0.511,0.719-0.88,1.203-1.109s1.086-0.344,1.805-0.344c1.927,0,2.891,1.034,2.891,3.102v5.555H15.726z"/>
	<path style="fill:#444444;" d="M22.672,389.513c-1.234,0-2.197-0.38-2.887-1.141c-0.69-0.761-1.035-1.825-1.035-3.195
		c0-1.354,0.333-2.438,1-3.254c0.667-0.815,1.565-1.223,2.695-1.223c1,0,1.789,0.349,2.367,1.047s0.867,1.646,0.867,2.844v0.625
		h-6.117c0.01,1.167,0.282,2.058,0.816,2.672c0.534,0.614,1.298,0.922,2.293,0.922c0.484,0,0.91-0.034,1.277-0.102
		s0.832-0.214,1.395-0.438v0.703c-0.479,0.208-0.922,0.351-1.328,0.426S23.161,389.513,22.672,389.513z M22.445,381.388
		c-0.818,0-1.474,0.27-1.969,0.809c-0.495,0.539-0.784,1.316-0.867,2.332h5.25c0-0.984-0.214-1.754-0.641-2.309
		C23.791,381.666,23.2,381.388,22.445,381.388z"/>
	<path style="fill:#444444;" d="M33.289,387.146c0,0.761-0.289,1.345-0.867,1.754s-1.398,0.613-2.461,0.613
		c-1.136,0-2.037-0.175-2.703-0.523v-0.836c0.854,0.427,1.755,0.641,2.703,0.641c0.838,0,1.475-0.14,1.91-0.418
		c0.435-0.278,0.652-0.649,0.652-1.113c0-0.427-0.173-0.786-0.52-1.078c-0.347-0.292-0.916-0.578-1.707-0.859
		c-0.849-0.308-1.445-0.571-1.789-0.793s-0.603-0.472-0.777-0.75c-0.175-0.278-0.262-0.618-0.262-1.02
		c0-0.636,0.267-1.138,0.801-1.508c0.534-0.37,1.28-0.555,2.238-0.555c0.917,0,1.786,0.172,2.609,0.516l-0.289,0.703
		c-0.833-0.344-1.607-0.516-2.32-0.516c-0.693,0-1.242,0.114-1.648,0.344s-0.609,0.547-0.609,0.953c0,0.442,0.157,0.797,0.473,1.063
		c0.315,0.266,0.931,0.563,1.848,0.891c0.766,0.276,1.323,0.524,1.672,0.746c0.349,0.222,0.61,0.473,0.785,0.754
		C33.201,386.435,33.289,386.766,33.289,387.146z"/>
	<path style="fill:#444444;" d="M38.906,389.513c-1.234,0-2.197-0.38-2.887-1.141c-0.69-0.761-1.035-1.825-1.035-3.195
		c0-1.354,0.333-2.438,1-3.254c0.667-0.815,1.565-1.223,2.695-1.223c1,0,1.789,0.349,2.367,1.047s0.867,1.646,0.867,2.844v0.625
		h-6.117c0.01,1.167,0.282,2.058,0.816,2.672c0.534,0.614,1.298,0.922,2.293,0.922c0.484,0,0.91-0.034,1.277-0.102
		s0.832-0.214,1.395-0.438v0.703c-0.479,0.208-0.922,0.351-1.328,0.426S39.395,389.513,38.906,389.513z M38.679,381.388
		c-0.818,0-1.474,0.27-1.969,0.809c-0.495,0.539-0.784,1.316-0.867,2.332h5.25c0-0.984-0.214-1.754-0.641-2.309
		C40.026,381.666,39.434,381.388,38.679,381.388z"/>
	<path style="fill:#444444;" d="M57.19,389.513c-1.308,0-2.261-0.489-2.859-1.469h-0.055l0.023,0.656
		c0.021,0.386,0.031,0.808,0.031,1.266v3.234h-0.773v-12.336h0.656l0.148,1.211h0.047c0.583-0.917,1.516-1.375,2.797-1.375
		c1.146,0,2.02,0.376,2.621,1.129s0.902,1.848,0.902,3.285c0,1.396-0.316,2.478-0.949,3.246S58.283,389.513,57.19,389.513z
		 M57.174,388.826c0.87,0,1.543-0.323,2.02-0.969s0.715-1.55,0.715-2.711c0-2.495-0.901-3.742-2.703-3.742
		c-0.99,0-1.716,0.272-2.18,0.816c-0.464,0.544-0.695,1.431-0.695,2.66v0.25c0,1.328,0.223,2.276,0.668,2.844
		S56.169,388.826,57.174,388.826z"/>
	<path style="fill:#444444;" d="M62.971,378.505c0-0.5,0.164-0.75,0.492-0.75c0.161,0,0.288,0.065,0.379,0.195
		c0.091,0.13,0.137,0.315,0.137,0.555c0,0.234-0.046,0.419-0.137,0.555c-0.091,0.136-0.218,0.203-0.379,0.203
		C63.135,379.263,62.971,379.01,62.971,378.505z M63.854,389.357H63.08v-8.492h0.773V389.357z"/>
	<path style="fill:#444444;" d="M70.088,389.513c-1.214,0-2.164-0.383-2.852-1.148s-1.031-1.833-1.031-3.203
		c0-1.406,0.356-2.501,1.07-3.285c0.713-0.784,1.69-1.176,2.93-1.176c0.734,0,1.438,0.128,2.109,0.383l-0.211,0.688
		c-0.734-0.245-1.373-0.367-1.914-0.367c-1.042,0-1.831,0.321-2.367,0.965c-0.537,0.644-0.805,1.569-0.805,2.777
		c0,1.146,0.268,2.043,0.805,2.691c0.536,0.648,1.286,0.973,2.25,0.973c0.771,0,1.487-0.138,2.148-0.414v0.719
		C71.679,389.38,70.968,389.513,70.088,389.513z"/>
	<path style="fill:#444444;" d="M76.541,388.826c0.489,0,0.917-0.042,1.281-0.125v0.625c-0.375,0.125-0.808,0.188-1.297,0.188
		c-0.75,0-1.304-0.2-1.66-0.602c-0.357-0.401-0.535-1.031-0.535-1.891v-5.484h-1.258v-0.453l1.258-0.352l0.391-1.922h0.398v2.055
		h2.492v0.672h-2.492v5.375c0,0.651,0.114,1.133,0.344,1.445C75.692,388.669,76.052,388.826,76.541,388.826z"/>
	<path style="fill:#444444;" d="M80.33,380.865v5.5c0,0.854,0.18,1.476,0.539,1.863s0.917,0.582,1.672,0.582
		c1.01,0,1.754-0.255,2.23-0.766s0.715-1.341,0.715-2.492v-4.688h0.766v8.492h-0.656l-0.141-1.172h-0.047
		c-0.552,0.886-1.534,1.328-2.945,1.328c-1.933,0-2.898-1.034-2.898-3.102v-5.547H80.33z"/>
	<path style="fill:#444444;" d="M92.44,380.701c0.359,0,0.745,0.036,1.156,0.109l-0.148,0.742c-0.354-0.089-0.722-0.133-1.102-0.133
		c-0.724,0-1.318,0.308-1.781,0.922c-0.464,0.614-0.695,1.391-0.695,2.328v4.688h-0.773v-8.492h0.656l0.078,1.531h0.055
		c0.349-0.625,0.721-1.063,1.117-1.316C91.398,380.827,91.877,380.701,92.44,380.701z"/>
	<path style="fill:#444444;" d="M98.752,389.513c-1.234,0-2.197-0.38-2.887-1.141c-0.69-0.761-1.035-1.825-1.035-3.195
		c0-1.354,0.333-2.438,1-3.254c0.667-0.815,1.565-1.223,2.695-1.223c1,0,1.789,0.349,2.367,1.047s0.867,1.646,0.867,2.844v0.625
		h-6.117c0.01,1.167,0.282,2.058,0.816,2.672c0.534,0.614,1.298,0.922,2.293,0.922c0.484,0,0.91-0.034,1.277-0.102
		s0.832-0.214,1.395-0.438v0.703c-0.479,0.208-0.922,0.351-1.328,0.426S99.241,389.513,98.752,389.513z M98.526,381.388
		c-0.818,0-1.474,0.27-1.969,0.809c-0.495,0.539-0.784,1.316-0.867,2.332h5.25c0-0.984-0.214-1.754-0.641-2.309
		C99.872,381.666,99.281,381.388,98.526,381.388z"/>
	<path style="fill:#444444;" d="M109.369,387.146c0,0.761-0.289,1.345-0.867,1.754s-1.398,0.613-2.461,0.613
		c-1.136,0-2.037-0.175-2.703-0.523v-0.836c0.854,0.427,1.755,0.641,2.703,0.641c0.838,0,1.475-0.14,1.91-0.418
		c0.435-0.278,0.652-0.649,0.652-1.113c0-0.427-0.173-0.786-0.52-1.078c-0.347-0.292-0.916-0.578-1.707-0.859
		c-0.849-0.308-1.445-0.571-1.789-0.793s-0.603-0.472-0.777-0.75c-0.175-0.278-0.262-0.618-0.262-1.02
		c0-0.636,0.267-1.138,0.801-1.508c0.534-0.37,1.28-0.555,2.238-0.555c0.917,0,1.786,0.172,2.609,0.516l-0.289,0.703
		c-0.833-0.344-1.607-0.516-2.32-0.516c-0.693,0-1.242,0.114-1.648,0.344s-0.609,0.547-0.609,0.953c0,0.442,0.157,0.797,0.473,1.063
		c0.315,0.266,0.931,0.563,1.848,0.891c0.766,0.276,1.323,0.524,1.672,0.746c0.349,0.222,0.61,0.473,0.785,0.754
		C109.282,386.435,109.369,386.766,109.369,387.146z"/>
	<path style="fill:#444444;" d="M126.012,389.357l-0.195-1.344h-0.063c-0.427,0.547-0.866,0.934-1.316,1.16
		c-0.451,0.227-0.983,0.34-1.598,0.34c-0.833,0-1.482-0.214-1.945-0.641c-0.464-0.427-0.695-1.019-0.695-1.773
		c0-0.828,0.345-1.472,1.035-1.93c0.69-0.458,1.688-0.7,2.996-0.727l1.617-0.047v-0.563c0-0.808-0.164-1.417-0.492-1.828
		s-0.857-0.617-1.586-0.617c-0.787,0-1.602,0.219-2.445,0.656l-0.289-0.672c0.932-0.438,1.854-0.656,2.766-0.656
		c0.932,0,1.629,0.242,2.09,0.727s0.691,1.239,0.691,2.266v5.648H126.012z M122.887,388.81c0.906,0,1.621-0.259,2.145-0.777
		s0.785-1.238,0.785-2.16v-0.836l-1.484,0.063c-1.193,0.058-2.043,0.243-2.551,0.559s-0.762,0.806-0.762,1.473
		c0,0.531,0.163,0.944,0.488,1.238C121.834,388.663,122.294,388.81,122.887,388.81z"/>
	<path style="fill:#444444;" d="M132.677,380.701c0.359,0,0.745,0.036,1.156,0.109l-0.148,0.742
		c-0.354-0.089-0.722-0.133-1.102-0.133c-0.724,0-1.318,0.308-1.781,0.922c-0.464,0.614-0.695,1.391-0.695,2.328v4.688h-0.773
		v-8.492h0.656l0.078,1.531h0.055c0.349-0.625,0.721-1.063,1.117-1.316C131.635,380.827,132.114,380.701,132.677,380.701z"/>
	<path style="fill:#444444;" d="M138.989,389.513c-1.234,0-2.197-0.38-2.887-1.141c-0.69-0.761-1.035-1.825-1.035-3.195
		c0-1.354,0.333-2.438,1-3.254c0.667-0.815,1.565-1.223,2.695-1.223c1,0,1.789,0.349,2.367,1.047s0.867,1.646,0.867,2.844v0.625
		h-6.117c0.01,1.167,0.282,2.058,0.816,2.672c0.534,0.614,1.298,0.922,2.293,0.922c0.484,0,0.91-0.034,1.277-0.102
		s0.832-0.214,1.395-0.438v0.703c-0.479,0.208-0.922,0.351-1.328,0.426S139.478,389.513,138.989,389.513z M138.762,381.388
		c-0.818,0-1.474,0.27-1.969,0.809c-0.495,0.539-0.784,1.316-0.867,2.332h5.25c0-0.984-0.214-1.754-0.641-2.309
		C140.109,381.666,139.517,381.388,138.762,381.388z"/>
	<path style="fill:#444444;" d="M155.882,388.826c0.489,0,0.917-0.042,1.281-0.125v0.625c-0.375,0.125-0.808,0.188-1.297,0.188
		c-0.75,0-1.304-0.2-1.66-0.602c-0.357-0.401-0.535-1.031-0.535-1.891v-5.484h-1.258v-0.453l1.258-0.352l0.391-1.922h0.398v2.055
		h2.492v0.672h-2.492v5.375c0,0.651,0.114,1.133,0.344,1.445C155.033,388.669,155.392,388.826,155.882,388.826z"/>
	<path style="fill:#444444;" d="M164.921,389.357v-5.508c0-0.854-0.18-1.476-0.539-1.863s-0.917-0.582-1.672-0.582
		c-1.016,0-1.759,0.257-2.23,0.77c-0.472,0.513-0.707,1.345-0.707,2.496v4.688h-0.773v-12.156h0.773v3.867l-0.039,1.086h0.055
		c0.317-0.511,0.719-0.88,1.203-1.109s1.086-0.344,1.805-0.344c1.927,0,2.891,1.034,2.891,3.102v5.555H164.921z"/>
	<path style="fill:#444444;" d="M171.867,389.513c-1.234,0-2.197-0.38-2.887-1.141c-0.69-0.761-1.035-1.825-1.035-3.195
		c0-1.354,0.333-2.438,1-3.254c0.667-0.815,1.565-1.223,2.696-1.223c1,0,1.789,0.349,2.367,1.047s0.867,1.646,0.867,2.844v0.625
		h-6.118c0.01,1.167,0.282,2.058,0.816,2.672c0.534,0.614,1.297,0.922,2.293,0.922c0.484,0,0.91-0.034,1.277-0.102
		s0.832-0.214,1.395-0.438v0.703c-0.48,0.208-0.922,0.351-1.328,0.426S172.355,389.513,171.867,389.513z M171.64,381.388
		c-0.818,0-1.475,0.27-1.969,0.809c-0.495,0.539-0.784,1.316-0.867,2.332h5.25c0-0.984-0.215-1.754-0.641-2.309
		C172.986,381.666,172.394,381.388,171.64,381.388z"/>
	<path style="fill:#444444;" d="M188.377,389.357l-3.281-8.492h0.797l2.195,5.773c0.292,0.739,0.511,1.386,0.656,1.938h0.047
		c0.214-0.708,0.433-1.359,0.656-1.953l2.195-5.758h0.797l-3.281,8.492H188.377z"/>
	<path style="fill:#444444;" d="M193.752,378.505c0-0.5,0.164-0.75,0.492-0.75c0.161,0,0.288,0.065,0.379,0.195
		s0.137,0.315,0.137,0.555c0,0.234-0.046,0.419-0.137,0.555s-0.218,0.203-0.379,0.203
		C193.916,379.263,193.752,379.01,193.752,378.505z M194.635,389.357h-0.773v-8.492h0.773V389.357z"/>
	<path style="fill:#444444;" d="M200.908,389.513c-1.234,0-2.196-0.38-2.887-1.141s-1.035-1.825-1.035-3.195
		c0-1.354,0.333-2.438,1-3.254s1.565-1.223,2.695-1.223c1,0,1.789,0.349,2.367,1.047s0.867,1.646,0.867,2.844v0.625h-6.117
		c0.011,1.167,0.282,2.058,0.816,2.672s1.298,0.922,2.293,0.922c0.484,0,0.91-0.034,1.277-0.102s0.832-0.214,1.395-0.438v0.703
		c-0.479,0.208-0.922,0.351-1.328,0.426S201.397,389.513,200.908,389.513z M200.681,381.388c-0.817,0-1.474,0.27-1.969,0.809
		s-0.784,1.316-0.867,2.332h5.25c0-0.984-0.214-1.754-0.641-2.309S201.436,381.388,200.681,381.388z"/>
	<path style="fill:#444444;" d="M213.049,389.357l-1.859-5.68c-0.12-0.386-0.273-0.95-0.461-1.695h-0.047l-0.164,0.578l-0.352,1.133
		l-1.891,5.664h-0.766l-2.43-8.492h0.828l1.359,4.922c0.317,1.219,0.526,2.114,0.625,2.688h0.047
		c0.308-1.219,0.531-2.028,0.672-2.43l1.75-5.18h0.703l1.664,5.164c0.375,1.224,0.604,2.034,0.688,2.43h0.047
		c0.042-0.339,0.25-1.245,0.625-2.719l1.297-4.875h0.781l-2.305,8.492H213.049z"/>
	<path style="fill:#444444;" d="M223.095,387.146c0,0.761-0.289,1.345-0.867,1.754s-1.398,0.613-2.461,0.613
		c-1.136,0-2.036-0.175-2.703-0.523v-0.836c0.854,0.427,1.755,0.641,2.703,0.641c0.839,0,1.476-0.14,1.91-0.418
		s0.652-0.649,0.652-1.113c0-0.427-0.173-0.786-0.52-1.078s-0.915-0.578-1.707-0.859c-0.849-0.308-1.445-0.571-1.789-0.793
		s-0.603-0.472-0.777-0.75s-0.262-0.618-0.262-1.02c0-0.636,0.267-1.138,0.801-1.508s1.28-0.555,2.238-0.555
		c0.917,0,1.786,0.172,2.609,0.516l-0.289,0.703c-0.833-0.344-1.606-0.516-2.32-0.516c-0.692,0-1.242,0.114-1.648,0.344
		s-0.609,0.547-0.609,0.953c0,0.442,0.157,0.797,0.473,1.063s0.931,0.563,1.848,0.891c0.766,0.276,1.323,0.524,1.672,0.746
		s0.61,0.473,0.785,0.754S223.095,386.766,223.095,387.146z"/>
	<path style="fill:#444444;" d="M241.605,385.099c0,1.386-0.336,2.468-1.008,3.246s-1.599,1.168-2.781,1.168
		c-0.745,0-1.401-0.18-1.969-0.539s-1.003-0.875-1.305-1.547s-0.453-1.448-0.453-2.328c0-1.386,0.336-2.465,1.008-3.238
		s1.594-1.16,2.766-1.16c1.167,0,2.082,0.392,2.746,1.176S241.605,383.735,241.605,385.099z M234.902,385.099
		c0,1.167,0.257,2.077,0.77,2.73s1.238,0.98,2.176,0.98s1.663-0.327,2.176-0.98s0.77-1.563,0.77-2.73
		c0-1.172-0.259-2.081-0.777-2.727s-1.246-0.969-2.184-0.969s-1.66,0.321-2.168,0.965S234.902,383.922,234.902,385.099z"/>
	<path style="fill:#444444;" d="M247.113,381.537h-2v7.82h-0.773v-7.82h-1.578v-0.453l1.578-0.289v-0.656
		c0-1.042,0.191-1.806,0.574-2.293s1.009-0.73,1.879-0.73c0.469,0,0.938,0.07,1.406,0.211l-0.18,0.672
		c-0.417-0.13-0.831-0.195-1.242-0.195c-0.604,0-1.032,0.179-1.285,0.535s-0.379,0.937-0.379,1.738v0.789h2V381.537z"/>
	<path style="fill:#444444;" d="M260.296,388.826c0.489,0,0.917-0.042,1.281-0.125v0.625c-0.375,0.125-0.808,0.188-1.297,0.188
		c-0.75,0-1.304-0.2-1.66-0.602s-0.535-1.031-0.535-1.891v-5.484h-1.258v-0.453l1.258-0.352l0.391-1.922h0.398v2.055h2.492v0.672
		h-2.492v5.375c0,0.651,0.114,1.133,0.344,1.445S259.806,388.826,260.296,388.826z"/>
	<path style="fill:#444444;" d="M269.335,389.357v-5.508c0-0.854-0.18-1.476-0.539-1.863s-0.917-0.582-1.672-0.582
		c-1.016,0-1.759,0.257-2.23,0.77s-0.707,1.345-0.707,2.496v4.688h-0.773v-12.156h0.773v3.867l-0.039,1.086h0.055
		c0.317-0.511,0.719-0.88,1.203-1.109s1.086-0.344,1.805-0.344c1.927,0,2.891,1.034,2.891,3.102v5.555H269.335z"/>
	<path style="fill:#444444;" d="M276.28,389.513c-1.234,0-2.196-0.38-2.887-1.141s-1.035-1.825-1.035-3.195
		c0-1.354,0.333-2.438,1-3.254s1.565-1.223,2.695-1.223c1,0,1.789,0.349,2.367,1.047s0.867,1.646,0.867,2.844v0.625h-6.117
		c0.011,1.167,0.282,2.058,0.816,2.672s1.298,0.922,2.293,0.922c0.484,0,0.91-0.034,1.277-0.102s0.832-0.214,1.395-0.438v0.703
		c-0.479,0.208-0.922,0.351-1.328,0.426S276.769,389.513,276.28,389.513z M276.053,381.388c-0.817,0-1.474,0.27-1.969,0.809
		s-0.784,1.316-0.867,2.332h5.25c0-0.984-0.214-1.754-0.641-2.309S276.808,381.388,276.053,381.388z"/>
	<path style="fill:#444444;" d="M296.197,387.146c0,0.761-0.289,1.345-0.867,1.754s-1.398,0.613-2.461,0.613
		c-1.136,0-2.036-0.175-2.703-0.523v-0.836c0.854,0.427,1.755,0.641,2.703,0.641c0.839,0,1.476-0.14,1.91-0.418
		s0.652-0.649,0.652-1.113c0-0.427-0.173-0.786-0.52-1.078s-0.915-0.578-1.707-0.859c-0.849-0.308-1.445-0.571-1.789-0.793
		s-0.603-0.472-0.777-0.75s-0.262-0.618-0.262-1.02c0-0.636,0.267-1.138,0.801-1.508s1.28-0.555,2.238-0.555
		c0.917,0,1.786,0.172,2.609,0.516l-0.289,0.703c-0.833-0.344-1.606-0.516-2.32-0.516c-0.692,0-1.242,0.114-1.648,0.344
		s-0.609,0.547-0.609,0.953c0,0.442,0.157,0.797,0.473,1.063s0.931,0.563,1.848,0.891c0.766,0.276,1.323,0.524,1.672,0.746
		s0.61,0.473,0.785,0.754S296.197,386.766,296.197,387.146z"/>
	<path style="fill:#444444;" d="M299.142,385.63l4.336-4.766h0.938l-3.344,3.625l3.633,4.867h-0.93l-3.227-4.289l-1.391,1.266v3.023
		h-0.773v-12.156h0.773v6.094l-0.055,2.336H299.142z"/>
	<path style="fill:#444444;" d="M304.705,380.865h0.797l1.797,4.766c0.547,1.464,0.894,2.45,1.039,2.961h0.047
		c0.219-0.672,0.575-1.675,1.07-3.008l1.797-4.719h0.797l-3.805,9.867c-0.308,0.802-0.565,1.344-0.773,1.625
		s-0.452,0.492-0.73,0.633s-0.616,0.211-1.012,0.211c-0.297,0-0.628-0.055-0.992-0.164v-0.672c0.302,0.083,0.628,0.125,0.977,0.125
		c0.266,0,0.5-0.063,0.703-0.188s0.387-0.319,0.551-0.582s0.354-0.68,0.57-1.25s0.355-0.941,0.418-1.113L304.705,380.865z"/>
	<path style="fill:#444444;" d="M329.793,385.099c0,1.386-0.336,2.468-1.008,3.246s-1.599,1.168-2.781,1.168
		c-0.745,0-1.401-0.18-1.969-0.539s-1.003-0.875-1.305-1.547s-0.453-1.448-0.453-2.328c0-1.386,0.336-2.465,1.008-3.238
		s1.594-1.16,2.766-1.16c1.167,0,2.082,0.392,2.746,1.176S329.793,383.735,329.793,385.099z M323.09,385.099
		c0,1.167,0.257,2.077,0.77,2.73s1.238,0.98,2.176,0.98s1.663-0.327,2.176-0.98s0.77-1.563,0.77-2.73
		c0-1.172-0.259-2.081-0.777-2.727s-1.246-0.969-2.184-0.969s-1.66,0.321-2.168,0.965S323.09,383.922,323.09,385.099z"/>
	<path style="fill:#444444;" d="M338.066,389.357v-5.508c0-0.854-0.18-1.476-0.539-1.863s-0.917-0.582-1.672-0.582
		c-1.016,0-1.759,0.257-2.23,0.77s-0.707,1.345-0.707,2.496v4.688h-0.773v-8.492h0.656l0.148,1.164h0.047
		c0.552-0.886,1.534-1.328,2.945-1.328c1.927,0,2.891,1.034,2.891,3.102v5.555H338.066z"/>
	<path style="fill:#444444;" d="M5.054,408.713c-1.308,0-2.261-0.489-2.859-1.469H2.14l0.023,0.656
		c0.021,0.386,0.031,0.808,0.031,1.266v3.234H1.422v-12.336h0.656l0.148,1.211h0.047c0.583-0.917,1.516-1.375,2.797-1.375
		c1.146,0,2.02,0.376,2.621,1.129s0.902,1.848,0.902,3.285c0,1.396-0.316,2.478-0.949,3.246S6.148,408.713,5.054,408.713z
		 M5.039,408.026c0.87,0,1.543-0.323,2.02-0.969s0.715-1.55,0.715-2.711c0-2.495-0.901-3.742-2.703-3.742
		c-0.99,0-1.716,0.272-2.18,0.816c-0.464,0.544-0.695,1.431-0.695,2.66v0.25c0,1.328,0.223,2.276,0.668,2.844
		S4.033,408.026,5.039,408.026z"/>
	<path style="fill:#444444;" d="M11.719,408.557h-0.773v-12.156h0.773V408.557z"/>
	<path style="fill:#444444;" d="M19.719,408.557l-0.195-1.344h-0.063c-0.427,0.547-0.866,0.934-1.316,1.16
		c-0.451,0.227-0.983,0.34-1.598,0.34c-0.833,0-1.482-0.214-1.945-0.641c-0.464-0.427-0.695-1.019-0.695-1.773
		c0-0.828,0.345-1.472,1.035-1.93c0.69-0.458,1.688-0.7,2.996-0.727l1.617-0.047v-0.563c0-0.808-0.164-1.417-0.492-1.828
		s-0.857-0.617-1.586-0.617c-0.787,0-1.602,0.219-2.445,0.656l-0.289-0.672c0.932-0.438,1.854-0.656,2.766-0.656
		c0.932,0,1.629,0.242,2.09,0.727s0.691,1.239,0.691,2.266v5.648H19.719z M16.594,408.01c0.906,0,1.621-0.259,2.145-0.777
		s0.785-1.238,0.785-2.16v-0.836l-1.484,0.063c-1.193,0.058-2.043,0.243-2.551,0.559s-0.762,0.806-0.762,1.473
		c0,0.531,0.163,0.944,0.488,1.238C15.54,407.863,16,408.01,16.594,408.01z"/>
	<path style="fill:#444444;" d="M28.961,408.557v-5.508c0-0.854-0.18-1.476-0.539-1.863s-0.917-0.582-1.672-0.582
		c-1.016,0-1.759,0.257-2.23,0.77c-0.472,0.513-0.707,1.345-0.707,2.496v4.688h-0.773v-8.492h0.656l0.148,1.164h0.047
		c0.552-0.886,1.534-1.328,2.945-1.328c1.927,0,2.891,1.034,2.891,3.102v5.555H28.961z"/>
	<path style="fill:#444444;" d="M35.906,408.713c-1.234,0-2.197-0.38-2.887-1.141c-0.69-0.761-1.035-1.825-1.035-3.195
		c0-1.354,0.333-2.438,1-3.254c0.667-0.815,1.565-1.223,2.695-1.223c1,0,1.789,0.349,2.367,1.047s0.867,1.646,0.867,2.844v0.625
		h-6.117c0.01,1.167,0.282,2.058,0.816,2.672c0.534,0.614,1.298,0.922,2.293,0.922c0.484,0,0.91-0.034,1.277-0.102
		s0.832-0.214,1.395-0.438v0.703c-0.479,0.208-0.922,0.351-1.328,0.426S36.395,408.713,35.906,408.713z M35.679,400.588
		c-0.818,0-1.474,0.27-1.969,0.809c-0.495,0.539-0.784,1.316-0.867,2.332h5.25c0-0.984-0.214-1.754-0.641-2.309
		C37.026,400.866,36.434,400.588,35.679,400.588z"/>
	<path style="fill:#444444;" d="M43.5,408.026c0.489,0,0.917-0.042,1.281-0.125v0.625c-0.375,0.125-0.808,0.188-1.297,0.188
		c-0.75,0-1.304-0.2-1.66-0.602c-0.357-0.401-0.535-1.031-0.535-1.891v-5.484h-1.258v-0.453l1.258-0.352l0.391-1.922h0.398v2.055
		h2.492v0.672h-2.492v5.375c0,0.651,0.114,1.133,0.344,1.445C42.651,407.87,43.01,408.026,43.5,408.026z"/>
	<path style="fill:#444444;" d="M57.661,408.557h-6.242v-11.422h6.242v0.734h-5.445v4.32h5.141v0.734h-5.141v4.898h5.445V408.557z"
		/>
	<path style="fill:#444444;" d="M65.208,408.557l-0.195-1.344H64.95c-0.427,0.547-0.866,0.934-1.316,1.16
		c-0.451,0.227-0.983,0.34-1.598,0.34c-0.833,0-1.482-0.214-1.945-0.641c-0.464-0.427-0.695-1.019-0.695-1.773
		c0-0.828,0.345-1.472,1.035-1.93c0.69-0.458,1.688-0.7,2.996-0.727l1.617-0.047v-0.563c0-0.808-0.164-1.417-0.492-1.828
		s-0.857-0.617-1.586-0.617c-0.787,0-1.602,0.219-2.445,0.656l-0.289-0.672c0.932-0.438,1.854-0.656,2.766-0.656
		c0.932,0,1.629,0.242,2.09,0.727s0.691,1.239,0.691,2.266v5.648H65.208z M62.083,408.01c0.906,0,1.621-0.259,2.145-0.777
		s0.785-1.238,0.785-2.16v-0.836l-1.484,0.063c-1.193,0.058-2.043,0.243-2.551,0.559s-0.762,0.806-0.762,1.473
		c0,0.531,0.163,0.944,0.488,1.238C61.029,407.863,61.489,408.01,62.083,408.01z"/>
	<path style="fill:#444444;" d="M71.872,399.901c0.359,0,0.745,0.036,1.156,0.109l-0.148,0.742
		c-0.354-0.089-0.722-0.133-1.102-0.133c-0.724,0-1.318,0.308-1.781,0.922c-0.464,0.614-0.695,1.391-0.695,2.328v4.688h-0.773
		v-8.492h0.656l0.078,1.531h0.055c0.349-0.625,0.721-1.063,1.117-1.316C70.83,400.027,71.309,399.901,71.872,399.901z"/>
	<path style="fill:#444444;" d="M76.997,408.026c0.489,0,0.917-0.042,1.281-0.125v0.625c-0.375,0.125-0.808,0.188-1.297,0.188
		c-0.75,0-1.304-0.2-1.66-0.602c-0.357-0.401-0.535-1.031-0.535-1.891v-5.484h-1.258v-0.453l1.258-0.352l0.391-1.922h0.398v2.055
		h2.492v0.672h-2.492v5.375c0,0.651,0.114,1.133,0.344,1.445C76.148,407.87,76.507,408.026,76.997,408.026z"/>
	<path style="fill:#444444;" d="M86.036,408.557v-5.508c0-0.854-0.18-1.476-0.539-1.863s-0.917-0.582-1.672-0.582
		c-1.016,0-1.759,0.257-2.23,0.77c-0.472,0.513-0.707,1.345-0.707,2.496v4.688h-0.773v-12.156h0.773v3.867l-0.039,1.086h0.055
		c0.317-0.511,0.719-0.88,1.203-1.109s1.086-0.344,1.805-0.344c1.927,0,2.891,1.034,2.891,3.102v5.555H86.036z"/>
	<path style="fill:#444444;" d="M89.395,407.948c0-0.511,0.208-0.766,0.625-0.766c0.427,0,0.641,0.255,0.641,0.766
		s-0.214,0.766-0.641,0.766C89.603,408.713,89.395,408.458,89.395,407.948z"/>
	<path style="fill:#444444;" d="M98.158,397.135h3.133c1.411,0,2.448,0.239,3.109,0.719c0.661,0.479,0.992,1.203,0.992,2.172
		c0,0.661-0.202,1.212-0.605,1.652c-0.404,0.44-0.994,0.723-1.77,0.848v0.047c0.911,0.136,1.582,0.423,2.012,0.863
		s0.645,1.054,0.645,1.84c0,1.052-0.349,1.862-1.047,2.43c-0.698,0.567-1.688,0.852-2.969,0.852h-3.5V397.135z M98.955,402.221
		h2.516c1.073,0,1.853-0.179,2.34-0.535c0.487-0.356,0.73-0.915,0.73-1.676s-0.275-1.313-0.824-1.656
		c-0.55-0.344-1.369-0.516-2.457-0.516h-2.305V402.221z M98.955,402.924v4.93h2.688c2.114,0,3.172-0.859,3.172-2.578
		c0-1.567-1.115-2.352-3.344-2.352H98.955z"/>
	<path style="fill:#444444;" d="M108.666,400.065v5.5c0,0.854,0.18,1.476,0.539,1.863s0.917,0.582,1.672,0.582
		c1.01,0,1.754-0.255,2.23-0.766s0.715-1.341,0.715-2.492v-4.688h0.766v8.492h-0.656l-0.141-1.172h-0.047
		c-0.552,0.886-1.534,1.328-2.945,1.328c-1.933,0-2.898-1.034-2.898-3.102v-5.547H108.666z"/>
	<path style="fill:#444444;" d="M119.674,408.026c0.489,0,0.917-0.042,1.281-0.125v0.625c-0.375,0.125-0.808,0.188-1.297,0.188
		c-0.75,0-1.304-0.2-1.66-0.602c-0.357-0.401-0.535-1.031-0.535-1.891v-5.484h-1.258v-0.453l1.258-0.352l0.391-1.922h0.398v2.055
		h2.492v0.672h-2.492v5.375c0,0.651,0.114,1.133,0.344,1.445C118.824,407.87,119.184,408.026,119.674,408.026z"/>
	<path style="fill:#444444;" d="M129.639,408.026c0.489,0,0.917-0.042,1.281-0.125v0.625c-0.375,0.125-0.808,0.188-1.297,0.188
		c-0.75,0-1.304-0.2-1.66-0.602c-0.357-0.401-0.535-1.031-0.535-1.891v-5.484h-1.258v-0.453l1.258-0.352l0.391-1.922h0.398v2.055
		h2.492v0.672h-2.492v5.375c0,0.651,0.114,1.133,0.344,1.445C128.79,407.87,129.149,408.026,129.639,408.026z"/>
	<path style="fill:#444444;" d="M138.678,408.557v-5.508c0-0.854-0.18-1.476-0.539-1.863s-0.917-0.582-1.672-0.582
		c-1.016,0-1.759,0.257-2.23,0.77c-0.472,0.513-0.707,1.345-0.707,2.496v4.688h-0.773v-12.156h0.773v3.867l-0.039,1.086h0.055
		c0.317-0.511,0.719-0.88,1.203-1.109s1.086-0.344,1.805-0.344c1.927,0,2.891,1.034,2.891,3.102v5.555H138.678z"/>
	<path style="fill:#444444;" d="M145.623,408.713c-1.234,0-2.197-0.38-2.887-1.141c-0.69-0.761-1.035-1.825-1.035-3.195
		c0-1.354,0.333-2.438,1-3.254c0.667-0.815,1.565-1.223,2.695-1.223c1,0,1.789,0.349,2.367,1.047s0.867,1.646,0.867,2.844v0.625
		h-6.117c0.01,1.167,0.282,2.058,0.816,2.672c0.534,0.614,1.298,0.922,2.293,0.922c0.484,0,0.91-0.034,1.277-0.102
		s0.832-0.214,1.395-0.438v0.703c-0.479,0.208-0.922,0.351-1.328,0.426S146.113,408.713,145.623,408.713z M145.397,400.588
		c-0.818,0-1.474,0.27-1.969,0.809c-0.495,0.539-0.784,1.316-0.867,2.332h5.25c0-0.984-0.214-1.754-0.641-2.309
		C146.743,400.866,146.152,400.588,145.397,400.588z"/>
	<path style="fill:#444444;" d="M160.847,406.346c0,0.761-0.289,1.345-0.867,1.754s-1.398,0.613-2.461,0.613
		c-1.136,0-2.037-0.175-2.703-0.523v-0.836c0.854,0.427,1.755,0.641,2.703,0.641c0.838,0,1.475-0.14,1.91-0.418
		c0.435-0.278,0.652-0.649,0.652-1.113c0-0.427-0.173-0.786-0.52-1.078c-0.347-0.292-0.916-0.578-1.707-0.859
		c-0.849-0.308-1.445-0.571-1.789-0.793s-0.603-0.472-0.777-0.75c-0.175-0.278-0.262-0.618-0.262-1.02
		c0-0.636,0.267-1.138,0.801-1.508c0.534-0.37,1.28-0.555,2.238-0.555c0.917,0,1.786,0.172,2.609,0.516l-0.289,0.703
		c-0.833-0.344-1.607-0.516-2.32-0.516c-0.693,0-1.242,0.114-1.648,0.344s-0.609,0.547-0.609,0.953c0,0.442,0.157,0.797,0.473,1.063
		c0.315,0.266,0.931,0.563,1.848,0.891c0.766,0.276,1.323,0.524,1.672,0.746c0.349,0.222,0.61,0.473,0.785,0.754
		C160.76,405.635,160.847,405.966,160.847,406.346z"/>
	<path style="fill:#444444;" d="M173.644,408.557v-5.57c0-0.828-0.162-1.433-0.484-1.813c-0.324-0.38-0.818-0.57-1.484-0.57
		c-0.871,0-1.514,0.239-1.93,0.719c-0.417,0.479-0.625,1.231-0.625,2.258v4.977h-0.789v-5.805c0-1.433-0.656-2.148-1.969-2.148
		c-0.891,0-1.539,0.259-1.945,0.777s-0.609,1.348-0.609,2.488v4.688h-0.773v-8.492h0.641l0.164,1.164h0.047
		c0.234-0.422,0.567-0.749,1-0.98c0.432-0.231,0.909-0.348,1.43-0.348c1.338,0,2.198,0.503,2.578,1.508h0.031
		c0.276-0.484,0.647-0.856,1.113-1.117c0.466-0.261,0.997-0.391,1.59-0.391c0.926,0,1.621,0.247,2.086,0.742
		c0.463,0.495,0.695,1.281,0.695,2.359v5.555H173.644z"/>
	<path style="fill:#444444;" d="M182.316,408.557l-0.195-1.344h-0.063c-0.427,0.547-0.866,0.934-1.316,1.16s-0.983,0.34-1.598,0.34
		c-0.833,0-1.481-0.214-1.945-0.641s-0.695-1.019-0.695-1.773c0-0.828,0.345-1.472,1.035-1.93s1.688-0.7,2.996-0.727l1.617-0.047
		v-0.563c0-0.808-0.164-1.417-0.492-1.828s-0.856-0.617-1.586-0.617c-0.786,0-1.602,0.219-2.445,0.656l-0.289-0.672
		c0.933-0.438,1.854-0.656,2.766-0.656c0.933,0,1.629,0.242,2.09,0.727s0.691,1.239,0.691,2.266v5.648H182.316z M179.191,408.01
		c0.906,0,1.621-0.259,2.145-0.777s0.785-1.238,0.785-2.16v-0.836l-1.484,0.063c-1.192,0.058-2.043,0.243-2.551,0.559
		s-0.762,0.806-0.762,1.473c0,0.531,0.163,0.944,0.488,1.238S178.597,408.01,179.191,408.01z"/>
	<path style="fill:#444444;" d="M186.41,408.557h-0.773v-12.156h0.773V408.557z"/>
	<path style="fill:#444444;" d="M190.027,408.557h-0.773v-12.156h0.773V408.557z"/>
	<path style="fill:#444444;" d="M203.976,405.612c0,0.953-0.351,1.708-1.051,2.266s-1.632,0.836-2.793,0.836
		c-1.396,0-2.466-0.153-3.211-0.461v-0.797c0.823,0.349,1.872,0.523,3.148,0.523c0.938,0,1.681-0.215,2.23-0.645
		s0.824-0.993,0.824-1.691c0-0.433-0.091-0.79-0.273-1.074s-0.479-0.543-0.891-0.777s-1.016-0.487-1.813-0.758
		c-1.167-0.401-1.973-0.835-2.418-1.301s-0.668-1.087-0.668-1.863c0-0.854,0.335-1.551,1.004-2.09s1.53-0.809,2.582-0.809
		c1.073,0,2.081,0.203,3.023,0.609l-0.289,0.688c-0.948-0.396-1.854-0.594-2.719-0.594c-0.844,0-1.516,0.195-2.016,0.586
		s-0.75,0.922-0.75,1.594c0,0.422,0.077,0.769,0.23,1.039s0.405,0.515,0.754,0.73s0.948,0.476,1.797,0.777
		c0.891,0.308,1.56,0.605,2.008,0.895s0.774,0.617,0.98,0.984S203.976,405.091,203.976,405.612z"/>
	<path style="fill:#444444;" d="M206.867,400.065v5.5c0,0.854,0.18,1.476,0.539,1.863s0.917,0.582,1.672,0.582
		c1.011,0,1.754-0.255,2.23-0.766s0.715-1.341,0.715-2.492v-4.688h0.766v8.492h-0.656l-0.141-1.172h-0.047
		c-0.552,0.886-1.534,1.328-2.945,1.328c-1.933,0-2.898-1.034-2.898-3.102v-5.547H206.867z"/>
	<path style="fill:#444444;" d="M221.554,408.557v-5.508c0-0.854-0.18-1.476-0.539-1.863s-0.917-0.582-1.672-0.582
		c-1.016,0-1.759,0.257-2.23,0.77s-0.707,1.345-0.707,2.496v4.688h-0.773v-8.492h0.656l0.148,1.164h0.047
		c0.552-0.886,1.534-1.328,2.945-1.328c1.927,0,2.891,1.034,2.891,3.102v5.555H221.554z"/>
	<path style="fill:#444444;" d="M234.833,408.557l-0.195-1.344h-0.063c-0.427,0.547-0.866,0.934-1.316,1.16s-0.983,0.34-1.598,0.34
		c-0.833,0-1.481-0.214-1.945-0.641s-0.695-1.019-0.695-1.773c0-0.828,0.345-1.472,1.035-1.93s1.688-0.7,2.996-0.727l1.617-0.047
		v-0.563c0-0.808-0.164-1.417-0.492-1.828s-0.856-0.617-1.586-0.617c-0.786,0-1.602,0.219-2.445,0.656l-0.289-0.672
		c0.933-0.438,1.854-0.656,2.766-0.656c0.933,0,1.629,0.242,2.09,0.727s0.691,1.239,0.691,2.266v5.648H234.833z M231.708,408.01
		c0.906,0,1.621-0.259,2.145-0.777s0.785-1.238,0.785-2.16v-0.836l-1.484,0.063c-1.192,0.058-2.043,0.243-2.551,0.559
		s-0.762,0.806-0.762,1.473c0,0.531,0.163,0.944,0.488,1.238S231.114,408.01,231.708,408.01z"/>
	<path style="fill:#444444;" d="M244.075,408.557v-5.508c0-0.854-0.18-1.476-0.539-1.863s-0.917-0.582-1.672-0.582
		c-1.016,0-1.759,0.257-2.23,0.77s-0.707,1.345-0.707,2.496v4.688h-0.773v-8.492h0.656l0.148,1.164h0.047
		c0.552-0.886,1.534-1.328,2.945-1.328c1.927,0,2.891,1.034,2.891,3.102v5.555H244.075z"/>
	<path style="fill:#444444;" d="M250.7,399.901c0.614,0,1.146,0.112,1.594,0.336s0.849,0.606,1.203,1.148h0.047
		c-0.031-0.656-0.047-1.3-0.047-1.93v-3.055h0.766v12.156h-0.508l-0.195-1.297h-0.063c-0.646,0.969-1.573,1.453-2.781,1.453
		c-1.172,0-2.067-0.364-2.688-1.094s-0.93-1.792-0.93-3.188c0-1.469,0.308-2.591,0.922-3.367S249.528,399.901,250.7,399.901z
		 M250.7,400.604c-0.927,0-1.624,0.325-2.09,0.977s-0.699,1.597-0.699,2.836c0,2.406,0.935,3.609,2.805,3.609
		c0.958,0,1.661-0.278,2.109-0.836s0.672-1.477,0.672-2.758v-0.133c0-1.313-0.22-2.257-0.66-2.832S251.684,400.604,250.7,400.604z"
		/>
	<path style="fill:#444444;" d="M263.963,408.026c0.489,0,0.917-0.042,1.281-0.125v0.625c-0.375,0.125-0.808,0.188-1.297,0.188
		c-0.75,0-1.304-0.2-1.66-0.602s-0.535-1.031-0.535-1.891v-5.484h-1.258v-0.453l1.258-0.352l0.391-1.922h0.398v2.055h2.492v0.672
		h-2.492v5.375c0,0.651,0.114,1.133,0.344,1.445S263.473,408.026,263.963,408.026z"/>
	<path style="fill:#444444;" d="M273.002,408.557v-5.508c0-0.854-0.18-1.476-0.539-1.863s-0.917-0.582-1.672-0.582
		c-1.016,0-1.759,0.257-2.23,0.77s-0.707,1.345-0.707,2.496v4.688h-0.773v-12.156h0.773v3.867l-0.039,1.086h0.055
		c0.317-0.511,0.719-0.88,1.203-1.109s1.086-0.344,1.805-0.344c1.927,0,2.891,1.034,2.891,3.102v5.555H273.002z"/>
	<path style="fill:#444444;" d="M279.947,408.713c-1.234,0-2.196-0.38-2.887-1.141s-1.035-1.825-1.035-3.195
		c0-1.354,0.333-2.438,1-3.254s1.565-1.223,2.695-1.223c1,0,1.789,0.349,2.367,1.047s0.867,1.646,0.867,2.844v0.625h-6.117
		c0.011,1.167,0.282,2.058,0.816,2.672s1.298,0.922,2.293,0.922c0.484,0,0.91-0.034,1.277-0.102s0.832-0.214,1.395-0.438v0.703
		c-0.479,0.208-0.922,0.351-1.328,0.426S280.436,408.713,279.947,408.713z M279.72,400.588c-0.817,0-1.474,0.27-1.969,0.809
		s-0.784,1.316-0.867,2.332h5.25c0-0.984-0.214-1.754-0.641-2.309S280.475,400.588,279.72,400.588z"/>
	<path style="fill:#444444;" d="M293.249,399.901c0.359,0,0.745,0.036,1.156,0.109l-0.148,0.742
		c-0.354-0.089-0.722-0.133-1.102-0.133c-0.724,0-1.317,0.308-1.781,0.922s-0.695,1.391-0.695,2.328v4.688h-0.773v-8.492h0.656
		l0.078,1.531h0.055c0.349-0.625,0.722-1.063,1.117-1.316S292.686,399.901,293.249,399.901z"/>
	<path style="fill:#444444;" d="M299.561,408.713c-1.234,0-2.196-0.38-2.887-1.141s-1.035-1.825-1.035-3.195
		c0-1.354,0.333-2.438,1-3.254s1.565-1.223,2.695-1.223c1,0,1.789,0.349,2.367,1.047s0.867,1.646,0.867,2.844v0.625h-6.117
		c0.011,1.167,0.282,2.058,0.816,2.672s1.298,0.922,2.293,0.922c0.484,0,0.91-0.034,1.277-0.102s0.832-0.214,1.395-0.438v0.703
		c-0.479,0.208-0.922,0.351-1.328,0.426S300.051,408.713,299.561,408.713z M299.335,400.588c-0.817,0-1.474,0.27-1.969,0.809
		s-0.784,1.316-0.867,2.332h5.25c0-0.984-0.214-1.754-0.641-2.309S300.09,400.588,299.335,400.588z"/>
	<path style="fill:#444444;" d="M308.022,399.901c0.614,0,1.146,0.112,1.594,0.336s0.849,0.606,1.203,1.148h0.047
		c-0.031-0.656-0.047-1.3-0.047-1.93v-3.055h0.766v12.156h-0.508l-0.195-1.297h-0.063c-0.646,0.969-1.573,1.453-2.781,1.453
		c-1.172,0-2.067-0.364-2.688-1.094s-0.93-1.792-0.93-3.188c0-1.469,0.308-2.591,0.922-3.367S306.85,399.901,308.022,399.901z
		 M308.022,400.604c-0.927,0-1.624,0.325-2.09,0.977s-0.699,1.597-0.699,2.836c0,2.406,0.935,3.609,2.805,3.609
		c0.958,0,1.661-0.278,2.109-0.836s0.672-1.477,0.672-2.758v-0.133c0-1.313-0.22-2.257-0.66-2.832S309.007,400.604,308.022,400.604z
		"/>
	<path style="fill:#444444;" d="M324.308,406.346c0,0.761-0.289,1.345-0.867,1.754s-1.398,0.613-2.461,0.613
		c-1.136,0-2.036-0.175-2.703-0.523v-0.836c0.854,0.427,1.755,0.641,2.703,0.641c0.839,0,1.476-0.14,1.91-0.418
		s0.652-0.649,0.652-1.113c0-0.427-0.173-0.786-0.52-1.078s-0.915-0.578-1.707-0.859c-0.849-0.308-1.445-0.571-1.789-0.793
		s-0.603-0.472-0.777-0.75s-0.262-0.618-0.262-1.02c0-0.636,0.267-1.138,0.801-1.508s1.28-0.555,2.238-0.555
		c0.917,0,1.786,0.172,2.609,0.516l-0.289,0.703c-0.833-0.344-1.606-0.516-2.32-0.516c-0.692,0-1.242,0.114-1.648,0.344
		s-0.609,0.547-0.609,0.953c0,0.442,0.157,0.797,0.473,1.063s0.931,0.563,1.848,0.891c0.766,0.276,1.323,0.524,1.672,0.746
		s0.61,0.473,0.785,0.754S324.308,405.966,324.308,406.346z"/>
	<path style="fill:#444444;" d="M327.254,404.831l4.336-4.766h0.938l-3.344,3.625l3.633,4.867h-0.93l-3.227-4.289l-1.391,1.266
		v3.023h-0.773v-12.156h0.773v6.094l-0.055,2.336H327.254z"/>
	<path style="fill:#444444;" d="M332.816,400.065h0.797l1.797,4.766c0.547,1.464,0.894,2.45,1.039,2.961h0.047
		c0.219-0.672,0.575-1.675,1.07-3.008l1.797-4.719h0.797l-3.805,9.867c-0.308,0.802-0.565,1.344-0.773,1.625
		s-0.452,0.492-0.73,0.633s-0.616,0.211-1.012,0.211c-0.297,0-0.628-0.055-0.992-0.164v-0.672c0.302,0.083,0.628,0.125,0.977,0.125
		c0.266,0,0.5-0.063,0.703-0.188s0.387-0.319,0.551-0.582s0.354-0.68,0.57-1.25s0.355-0.941,0.418-1.113L332.816,400.065z"/>
	<path style="fill:#444444;" d="M6.578,427.756l-0.195-1.344H6.32c-0.427,0.547-0.866,0.934-1.316,1.16
		c-0.451,0.227-0.983,0.34-1.598,0.34c-0.833,0-1.482-0.214-1.945-0.641c-0.464-0.427-0.695-1.019-0.695-1.773
		c0-0.828,0.345-1.472,1.035-1.93c0.69-0.458,1.688-0.7,2.996-0.727l1.617-0.047v-0.563c0-0.808-0.164-1.417-0.492-1.828
		s-0.857-0.617-1.586-0.617c-0.787,0-1.602,0.219-2.445,0.656l-0.289-0.672c0.932-0.438,1.854-0.656,2.766-0.656
		c0.932,0,1.629,0.242,2.09,0.727s0.691,1.239,0.691,2.266v5.648H6.578z M3.453,427.209c0.906,0,1.621-0.259,2.145-0.777
		s0.785-1.238,0.785-2.16v-0.836l-1.484,0.063c-1.193,0.058-2.043,0.243-2.551,0.559s-0.762,0.806-0.762,1.473
		c0,0.531,0.163,0.944,0.488,1.238C2.399,427.062,2.859,427.209,3.453,427.209z"/>
	<path style="fill:#444444;" d="M13.242,419.1c0.359,0,0.745,0.036,1.156,0.109l-0.148,0.742c-0.354-0.089-0.722-0.133-1.102-0.133
		c-0.724,0-1.318,0.308-1.781,0.922c-0.464,0.614-0.695,1.391-0.695,2.328v4.688H9.898v-8.492h0.656l0.078,1.531h0.055
		c0.349-0.625,0.721-1.063,1.117-1.316C12.2,419.226,12.679,419.1,13.242,419.1z"/>
	<path style="fill:#444444;" d="M19.554,427.913c-1.234,0-2.197-0.38-2.887-1.141c-0.69-0.761-1.035-1.825-1.035-3.195
		c0-1.354,0.333-2.438,1-3.254c0.667-0.815,1.565-1.223,2.695-1.223c1,0,1.789,0.349,2.367,1.047s0.867,1.646,0.867,2.844v0.625
		h-6.117c0.01,1.167,0.282,2.058,0.816,2.672c0.534,0.614,1.298,0.922,2.293,0.922c0.484,0,0.91-0.034,1.277-0.102
		s0.832-0.214,1.395-0.438v0.703c-0.479,0.208-0.922,0.351-1.328,0.426S20.044,427.913,19.554,427.913z M19.328,419.788
		c-0.818,0-1.474,0.27-1.969,0.809c-0.495,0.539-0.784,1.316-0.867,2.332h5.25c0-0.984-0.214-1.754-0.641-2.309
		C20.674,420.065,20.083,419.788,19.328,419.788z"/>
	<path style="fill:#444444;" d="M36.086,423.499c0,1.386-0.336,2.468-1.008,3.246s-1.599,1.168-2.781,1.168
		c-0.745,0-1.401-0.18-1.969-0.539c-0.568-0.359-1.003-0.875-1.305-1.547c-0.302-0.672-0.453-1.448-0.453-2.328
		c0-1.386,0.336-2.465,1.008-3.238s1.594-1.16,2.766-1.16c1.167,0,2.082,0.392,2.746,1.176S36.086,422.134,36.086,423.499z
		 M29.383,423.499c0,1.167,0.256,2.077,0.77,2.73c0.513,0.653,1.238,0.98,2.176,0.98s1.663-0.327,2.176-0.98
		c0.513-0.653,0.77-1.563,0.77-2.73c0-1.172-0.259-2.081-0.777-2.727c-0.519-0.646-1.246-0.969-2.184-0.969s-1.66,0.321-2.168,0.965
		S29.383,422.322,29.383,423.499z"/>
	<path style="fill:#444444;" d="M44.359,427.756v-5.508c0-0.854-0.18-1.476-0.539-1.863s-0.917-0.582-1.672-0.582
		c-1.016,0-1.759,0.257-2.23,0.77c-0.472,0.513-0.707,1.345-0.707,2.496v4.688h-0.773v-8.492h0.656l0.148,1.164h0.047
		c0.552-0.886,1.534-1.328,2.945-1.328c1.927,0,2.891,1.034,2.891,3.102v5.555H44.359z"/>
	<path style="fill:#444444;" d="M48.648,427.756h-0.773V415.6h0.773V427.756z"/>
	<path style="fill:#444444;" d="M50.07,419.264h0.797l1.797,4.766c0.547,1.464,0.893,2.45,1.039,2.961h0.047
		c0.219-0.672,0.575-1.675,1.07-3.008l1.797-4.719h0.797l-3.805,9.867c-0.308,0.802-0.565,1.344-0.773,1.625
		c-0.208,0.281-0.452,0.492-0.73,0.633c-0.279,0.141-0.616,0.211-1.012,0.211c-0.297,0-0.628-0.055-0.992-0.164v-0.672
		c0.302,0.083,0.627,0.125,0.977,0.125c0.266,0,0.5-0.063,0.703-0.188s0.387-0.319,0.551-0.582s0.354-0.68,0.57-1.25
		c0.216-0.57,0.355-0.941,0.418-1.113L50.07,419.264z"/>
	<path style="fill:#444444;" d="M70.015,423.499c0,1.386-0.336,2.468-1.008,3.246s-1.599,1.168-2.781,1.168
		c-0.745,0-1.401-0.18-1.969-0.539c-0.568-0.359-1.003-0.875-1.305-1.547c-0.302-0.672-0.453-1.448-0.453-2.328
		c0-1.386,0.336-2.465,1.008-3.238s1.594-1.16,2.766-1.16c1.167,0,2.082,0.392,2.746,1.176S70.015,422.134,70.015,423.499z
		 M63.312,423.499c0,1.167,0.256,2.077,0.77,2.73c0.513,0.653,1.238,0.98,2.176,0.98s1.663-0.327,2.176-0.98
		c0.513-0.653,0.77-1.563,0.77-2.73c0-1.172-0.259-2.081-0.777-2.727c-0.519-0.646-1.246-0.969-2.184-0.969s-1.66,0.321-2.168,0.965
		S63.312,422.322,63.312,423.499z"/>
	<path style="fill:#444444;" d="M78.289,427.756v-5.508c0-0.854-0.18-1.476-0.539-1.863s-0.917-0.582-1.672-0.582
		c-1.016,0-1.759,0.257-2.23,0.77c-0.472,0.513-0.707,1.345-0.707,2.496v4.688h-0.773v-8.492h0.656l0.148,1.164h0.047
		c0.552-0.886,1.534-1.328,2.945-1.328c1.927,0,2.891,1.034,2.891,3.102v5.555H78.289z"/>
	<path style="fill:#444444;" d="M89.594,427.913c-1.308,0-2.261-0.489-2.859-1.469h-0.055l0.023,0.656
		c0.021,0.386,0.031,0.808,0.031,1.266v3.234h-0.773v-12.336h0.656l0.148,1.211h0.047c0.583-0.917,1.516-1.375,2.797-1.375
		c1.146,0,2.02,0.376,2.621,1.129s0.902,1.848,0.902,3.285c0,1.396-0.316,2.478-0.949,3.246S90.687,427.913,89.594,427.913z
		 M89.578,427.225c0.87,0,1.543-0.323,2.02-0.969s0.715-1.55,0.715-2.711c0-2.495-0.901-3.742-2.703-3.742
		c-0.99,0-1.716,0.272-2.18,0.816c-0.464,0.544-0.695,1.431-0.695,2.66v0.25c0,1.328,0.223,2.276,0.668,2.844
		S88.573,427.225,89.578,427.225z"/>
	<path style="fill:#444444;" d="M96.258,427.756h-0.773V415.6h0.773V427.756z"/>
	<path style="fill:#444444;" d="M104.258,427.756l-0.195-1.344H104c-0.427,0.547-0.866,0.934-1.316,1.16
		c-0.451,0.227-0.983,0.34-1.598,0.34c-0.833,0-1.482-0.214-1.945-0.641c-0.464-0.427-0.695-1.019-0.695-1.773
		c0-0.828,0.345-1.472,1.035-1.93c0.69-0.458,1.688-0.7,2.996-0.727l1.617-0.047v-0.563c0-0.808-0.164-1.417-0.492-1.828
		s-0.857-0.617-1.586-0.617c-0.787,0-1.602,0.219-2.445,0.656l-0.289-0.672c0.932-0.438,1.854-0.656,2.766-0.656
		c0.932,0,1.629,0.242,2.09,0.727s0.691,1.239,0.691,2.266v5.648H104.258z M101.133,427.209c0.906,0,1.621-0.259,2.145-0.777
		s0.785-1.238,0.785-2.16v-0.836l-1.484,0.063c-1.193,0.058-2.043,0.243-2.551,0.559s-0.762,0.806-0.762,1.473
		c0,0.531,0.163,0.944,0.488,1.238C100.079,427.062,100.539,427.209,101.133,427.209z"/>
	<path style="fill:#444444;" d="M113.5,427.756v-5.508c0-0.854-0.18-1.476-0.539-1.863s-0.917-0.582-1.672-0.582
		c-1.016,0-1.759,0.257-2.23,0.77c-0.472,0.513-0.707,1.345-0.707,2.496v4.688h-0.773v-8.492h0.656l0.148,1.164h0.047
		c0.552-0.886,1.534-1.328,2.945-1.328c1.927,0,2.891,1.034,2.891,3.102v5.555H113.5z"/>
	<path style="fill:#444444;" d="M120.445,427.913c-1.234,0-2.197-0.38-2.887-1.141c-0.69-0.761-1.035-1.825-1.035-3.195
		c0-1.354,0.333-2.438,1-3.254c0.667-0.815,1.565-1.223,2.695-1.223c1,0,1.789,0.349,2.367,1.047s0.867,1.646,0.867,2.844v0.625
		h-6.117c0.01,1.167,0.282,2.058,0.816,2.672c0.534,0.614,1.298,0.922,2.293,0.922c0.484,0,0.91-0.034,1.277-0.102
		s0.832-0.214,1.395-0.438v0.703c-0.479,0.208-0.922,0.351-1.328,0.426S120.934,427.913,120.445,427.913z M120.219,419.788
		c-0.818,0-1.474,0.27-1.969,0.809c-0.495,0.539-0.784,1.316-0.867,2.332h5.25c0-0.984-0.214-1.754-0.641-2.309
		C121.565,420.065,120.973,419.788,120.219,419.788z"/>
	<path style="fill:#444444;" d="M128.039,427.225c0.489,0,0.917-0.042,1.281-0.125v0.625c-0.375,0.125-0.808,0.188-1.297,0.188
		c-0.75,0-1.304-0.2-1.66-0.602c-0.357-0.401-0.535-1.031-0.535-1.891v-5.484h-1.258v-0.453l1.258-0.352l0.391-1.922h0.398v2.055
		h2.492v0.672h-2.492v5.375c0,0.651,0.114,1.133,0.344,1.445C127.19,427.069,127.549,427.225,128.039,427.225z"/>
</g>
<g>
	<linearGradient id="rect826_7_" gradientUnits="userSpaceOnUse" x1="84.364" y1="121.0552" x2="84.364" y2="0">
		<stop  offset="0.08" style="stop-color:#CAF0F8"/>
		<stop  offset="1" style="stop-color:#0096C7"/>
	</linearGradient>
	<rect id="rect826_3_" x="-0.001" style="fill:url(#rect826_7_);" width="168.729" height="121.055"/>
	<ellipse id="path860_3_" style="fill:#E9D8A6;enable-background:new    ;" cx="36.414" cy="22.642" rx="11.144" ry="10.516"/>
	<rect id="rect862_3_" x="11.728" y="9.521" style="fill:none;" width="142.966" height="100.536"/>
	<line style="fill:none;" x1="16.512" y1="105.05" x2="157.276" y2="105.05"/>
	<polygon style="opacity:0.6;fill:#FFFFFF;" points="70.708,80.746 112.033,32.797 163.455,108.267 4.345,108.267 59.401,69.441 	
		"/>
</g>
<g>
	<linearGradient id="rect826_8_" gradientUnits="userSpaceOnUse" x1="255.7957" y1="121.0552" x2="255.7957" y2="0">
		<stop  offset="0.08" style="stop-color:#FFB703"/>
		<stop  offset="0.4967" style="stop-color:#859858"/>
		<stop  offset="0.8448" style="stop-color:#26809C"/>
		<stop  offset="1" style="stop-color:#0077B6"/>
	</linearGradient>
	<rect id="rect826_4_" x="171.431" style="fill:url(#rect826_8_);" width="168.729" height="121.055"/>
	<ellipse id="path860_4_" style="fill:#FAA307;enable-background:new    ;" cx="220.845" cy="30.642" rx="11.145" ry="10.516"/>
	<rect id="rect862_4_" x="183.16" y="9.521" style="fill:none;" width="142.965" height="100.536"/>
	<line style="fill:none;" x1="187.943" y1="105.05" x2="328.707" y2="105.05"/>
	<polygon style="opacity:0.6;fill:#FFFFFF;" points="242.14,80.746 283.465,32.797 334.886,108.267 175.777,108.267 230.832,69.441 
			"/>
</g>
<g>
	<linearGradient id="rect826_9_" gradientUnits="userSpaceOnUse" x1="84.3645" y1="245.1973" x2="84.3645" y2="124.1421">
		<stop  offset="0.08" style="stop-color:#B5179E"/>
		<stop  offset="1" style="stop-color:#03045E"/>
	</linearGradient>
	<rect id="rect826_2_" x="0" y="124.142" style="fill:url(#rect826_9_);" width="168.729" height="121.055"/>
	<rect id="rect862_2_" x="11.728" y="133.663" style="fill:none;" width="142.966" height="100.536"/>
	<line style="fill:none;" x1="16.512" y1="229.192" x2="157.276" y2="229.192"/>
	<polygon style="opacity:0.6;fill:#FFFFFF;" points="70.709,204.888 112.034,156.939 163.456,232.409 4.345,232.409 59.401,193.583 
			"/>
</g>
<g>
	<linearGradient id="rect826_10_" gradientUnits="userSpaceOnUse" x1="255.7957" y1="245.1973" x2="255.7957" y2="124.1421">
		<stop  offset="0.08" style="stop-color:#DC2F02"/>
		<stop  offset="0.1848" style="stop-color:#DB3206"/>
		<stop  offset="0.2995" style="stop-color:#D73B14"/>
		<stop  offset="0.419" style="stop-color:#D14B2A"/>
		<stop  offset="0.5417" style="stop-color:#C86048"/>
		<stop  offset="0.667" style="stop-color:#BD7B70"/>
		<stop  offset="0.7945" style="stop-color:#AF9DA0"/>
		<stop  offset="0.9212" style="stop-color:#9FC4D8"/>
		<stop  offset="1" style="stop-color:#94DFFF"/>
	</linearGradient>
	<rect id="rect826_1_" x="171.431" y="124.142" style="fill:url(#rect826_10_);" width="168.729" height="121.055"/>
	<ellipse id="path860_1_" style="fill:#E85D04;enable-background:new    ;" cx="77.687" cy="179.086" rx="11.145" ry="10.516"/>
	<rect id="rect862_1_" x="183.16" y="133.663" style="fill:none;" width="142.965" height="100.536"/>
	<line style="fill:none;" x1="187.943" y1="229.192" x2="328.707" y2="229.192"/>
	<polygon style="opacity:0.6;fill:#FFFFFF;" points="242.14,204.888 283.465,156.939 334.886,232.409 175.777,232.409 
		230.832,193.583 	"/>
</g>
<g>
	<linearGradient id="rect826_11_" gradientUnits="userSpaceOnUse" x1="84.3645" y1="369.3882" x2="84.3645" y2="248.3335">
		<stop  offset="0.08" style="stop-color:#0096C7"/>
		<stop  offset="1" style="stop-color:#03045E"/>
	</linearGradient>
	<rect id="rect826_6_" x="0" y="248.333" style="fill:url(#rect826_11_);" width="168.729" height="121.055"/>
	<ellipse id="path860_6_" style="fill:#E9D8A6;enable-background:new    ;" cx="146.132" cy="268.372" rx="11.144" ry="10.517"/>
	<rect id="rect862_6_" x="11.728" y="257.855" style="fill:none;" width="142.966" height="100.535"/>
	<line style="fill:none;" x1="16.512" y1="353.384" x2="157.276" y2="353.384"/>
	<polygon style="opacity:0.6;fill:#FFFFFF;" points="70.709,329.08 112.034,281.13 163.456,356.601 4.345,356.601 59.401,317.775 	
		"/>
</g>
<g>
	<linearGradient id="rect826_12_" gradientUnits="userSpaceOnUse" x1="255.7957" y1="369.3882" x2="255.7957" y2="248.3335">
		<stop  offset="0.08" style="stop-color:#03045E"/>
		<stop  offset="1" style="stop-color:#14213D"/>
	</linearGradient>
	<rect id="rect826_5_" x="171.431" y="248.333" style="fill:url(#rect826_12_);" width="168.729" height="121.055"/>
	<ellipse id="path860_5_" style="fill:#FEFAE0;enable-background:new    ;" cx="240.923" cy="270.975" rx="11.145" ry="10.517"/>
	<rect id="rect862_5_" x="183.16" y="257.855" style="fill:none;" width="142.965" height="100.535"/>
	<line style="fill:none;" x1="187.943" y1="353.384" x2="328.707" y2="353.384"/>
	<polygon style="opacity:0.6;fill:#FFFFFF;" points="242.14,329.08 283.465,281.13 334.886,356.601 175.777,356.601 
		230.832,317.775 	"/>
</g>
<g>
	<rect x="0" y="448.851" style="fill:none;" width="340.16" height="19.675"/>
	<path style="fill:#444444;" d="M154.213,448.851h1.998l2.574,11.826l2.592-11.826h1.98l0.27,14.58h-1.638l-0.162-10.584
		l-2.466,10.584h-1.152l-2.448-10.584l-0.162,10.584h-1.656L154.213,448.851z"/>
	<path style="fill:#444444;" d="M168.163,448.851h1.962l3.113,14.58h-1.926l-0.666-3.672h-2.969l-0.702,3.672h-1.908
		L168.163,448.851z M170.377,458.301l-1.224-6.57l-1.206,6.57H170.377z"/>
	<path style="fill:#444444;" d="M174.715,448.851h2.935c1.476,0,2.559,0.304,3.249,0.909c0.689,0.606,1.034,1.593,1.034,2.961
		c0,1.872-0.6,3.006-1.8,3.402l2.07,7.308h-1.962l-1.908-6.84h-1.584v6.84h-2.034V448.851z M177.523,455.133
		c0.875,0,1.503-0.174,1.881-0.522c0.378-0.348,0.566-0.978,0.566-1.89c0-0.6-0.065-1.071-0.197-1.413
		c-0.133-0.342-0.366-0.594-0.702-0.756s-0.811-0.243-1.422-0.243h-0.9v4.824H177.523z"/>
	<path style="fill:#444444;" d="M184.696,462.459c-0.643-0.756-0.999-1.794-1.071-3.114l1.8-0.486
		c0.06,0.937,0.243,1.692,0.549,2.269c0.307,0.576,0.813,0.863,1.521,0.863c0.527,0,0.927-0.146,1.196-0.44
		c0.271-0.294,0.405-0.717,0.405-1.27c0-0.588-0.126-1.076-0.378-1.467c-0.252-0.39-0.654-0.837-1.206-1.341l-2.448-2.16
		c-0.492-0.443-0.849-0.915-1.07-1.413c-0.223-0.498-0.333-1.101-0.333-1.809c0-1.08,0.312-1.911,0.936-2.493
		s1.482-0.873,2.574-0.873c1.14,0,1.992,0.306,2.556,0.918c0.564,0.612,0.906,1.561,1.026,2.844l-1.729,0.469
		c-0.06-0.828-0.216-1.479-0.468-1.953c-0.252-0.475-0.696-0.711-1.332-0.711c-1.164,0-1.746,0.534-1.746,1.602
		c0,0.432,0.072,0.789,0.217,1.071c0.144,0.282,0.39,0.585,0.737,0.909l2.466,2.159c0.637,0.589,1.144,1.21,1.521,1.863
		c0.378,0.654,0.567,1.396,0.567,2.224c0,1.067-0.324,1.914-0.973,2.537c-0.647,0.624-1.488,0.937-2.52,0.937
		C186.27,463.593,185.338,463.215,184.696,462.459z"/>
</g>
<g>
	<g>
		<circle style="fill:#39B54A;" cx="202.603" cy="153.108" r="19.445"/>
		<path style="fill:#F2F1EF;" d="M221.683,141.655l-3.434-3.402c-0.455-0.457-1.215-0.457-1.701,0l-14.674,15.16l-6.352-6.26
			c-0.455-0.455-1.215-0.455-1.701,0l-3.037,3.01c-0.455,0.455-0.455,1.213,0,1.67l10.146,10.058
			c0.273,0.272,0.639,0.362,1.002,0.333c0.365,0.029,0.73-0.061,1.004-0.333l18.746-18.534
			C222.138,142.87,222.138,142.11,221.683,141.655z"/>
	</g>
	<path style="fill:#E6E5E3;" d="M202.937,161.891l18.746-18.534c0.455-0.455,0.455-1.215,0-1.671l-0.547-0.517l-19.23,18.897
		l-10.635-10.36l-0.455,0.457c-0.455,0.455-0.455,1.213,0,1.67l10.146,10.058c0.273,0.272,0.639,0.362,1.002,0.333
		C202.299,162.253,202.664,162.163,202.937,161.891z"/>
</g>
<ellipse id="path860_2_" style="fill:#E85D04;enable-background:new    ;" cx="328.707" cy="133.663" rx="5.227" ry="4.933"/>
</svg>
