<?xml version="1.0" encoding="utf-8"?>
<!-- Generator: Adobe Illustrator 16.0.0, SVG Export Plug-In . SVG Version: 6.00 Build 0)  -->
<!DOCTYPE svg PUBLIC "-//W3C//DTD SVG 1.0//EN" "http://www.w3.org/TR/2001/REC-SVG-20010904/DTD/svg10.dtd">
<svg version="1.0" id="Layer_1" xmlns="http://www.w3.org/2000/svg" xmlns:xlink="http://www.w3.org/1999/xlink" x="0px" y="0px"
	 width="340.16px" height="490.394px" viewBox="0 0 340.16 490.394" style="enable-background:new 0 0 340.16 490.394;"
	 xml:space="preserve">
<g>
	<rect x="0" y="377.197" style="fill:none;" width="340.16" height="53.833"/>
	<path style="fill:#444444;" d="M4.594,389.357H3.789v-10.672H0.078v-0.75h8.227v0.75H4.594V389.357z"/>
	<path style="fill:#444444;" d="M15.726,389.357v-5.508c0-0.854-0.18-1.476-0.539-1.863s-0.917-0.582-1.672-0.582
		c-1.016,0-1.759,0.257-2.23,0.77c-0.472,0.513-0.707,1.345-0.707,2.496v4.688H9.804v-12.156h0.773v3.867l-0.039,1.086h0.055
		c0.317-0.511,0.719-0.88,1.203-1.109s1.086-0.344,1.805-0.344c1.927,0,2.891,1.034,2.891,3.102v5.555H15.726z"/>
	<path style="fill:#444444;" d="M22.672,389.513c-1.234,0-2.197-0.38-2.887-1.141c-0.69-0.761-1.035-1.825-1.035-3.195
		c0-1.354,0.333-2.438,1-3.254c0.667-0.815,1.565-1.223,2.695-1.223c1,0,1.789,0.349,2.367,1.047s0.867,1.646,0.867,2.844v0.625
		h-6.117c0.01,1.167,0.282,2.058,0.816,2.672c0.534,0.614,1.298,0.922,2.293,0.922c0.484,0,0.91-0.034,1.277-0.102
		s0.832-0.214,1.395-0.438v0.703c-0.479,0.208-0.922,0.351-1.328,0.426S23.161,389.513,22.672,389.513z M22.445,381.388
		c-0.818,0-1.474,0.27-1.969,0.809c-0.495,0.539-0.784,1.316-0.867,2.332h5.25c0-0.984-0.214-1.754-0.641-2.309
		C23.791,381.666,23.2,381.388,22.445,381.388z"/>
	<path style="fill:#444444;" d="M33.289,387.146c0,0.761-0.289,1.345-0.867,1.754s-1.398,0.613-2.461,0.613
		c-1.136,0-2.037-0.175-2.703-0.523v-0.836c0.854,0.427,1.755,0.641,2.703,0.641c0.838,0,1.475-0.14,1.91-0.418
		c0.435-0.278,0.652-0.649,0.652-1.113c0-0.427-0.173-0.786-0.52-1.078c-0.347-0.292-0.916-0.578-1.707-0.859
		c-0.849-0.308-1.445-0.571-1.789-0.793s-0.603-0.472-0.777-0.75c-0.175-0.278-0.262-0.618-0.262-1.02
		c0-0.636,0.267-1.138,0.801-1.508c0.534-0.37,1.28-0.555,2.238-0.555c0.917,0,1.786,0.172,2.609,0.516l-0.289,0.703
		c-0.833-0.344-1.607-0.516-2.32-0.516c-0.693,0-1.242,0.114-1.648,0.344s-0.609,0.547-0.609,0.953c0,0.442,0.157,0.797,0.473,1.063
		c0.315,0.266,0.931,0.563,1.848,0.891c0.766,0.276,1.323,0.524,1.672,0.746c0.349,0.222,0.61,0.473,0.785,0.754
		C33.201,386.435,33.289,386.766,33.289,387.146z"/>
	<path style="fill:#444444;" d="M38.906,389.513c-1.234,0-2.197-0.38-2.887-1.141c-0.69-0.761-1.035-1.825-1.035-3.195
		c0-1.354,0.333-2.438,1-3.254c0.667-0.815,1.565-1.223,2.695-1.223c1,0,1.789,0.349,2.367,1.047s0.867,1.646,0.867,2.844v0.625
		h-6.117c0.01,1.167,0.282,2.058,0.816,2.672c0.534,0.614,1.298,0.922,2.293,0.922c0.484,0,0.91-0.034,1.277-0.102
		s0.832-0.214,1.395-0.438v0.703c-0.479,0.208-0.922,0.351-1.328,0.426S39.395,389.513,38.906,389.513z M38.679,381.388
		c-0.818,0-1.474,0.27-1.969,0.809c-0.495,0.539-0.784,1.316-0.867,2.332h5.25c0-0.984-0.214-1.754-0.641-2.309
		C40.026,381.666,39.434,381.388,38.679,381.388z"/>
	<path style="fill:#444444;" d="M57.812,389.513c-1.308,0-2.261-0.489-2.859-1.469h-0.055l0.023,0.656
		c0.021,0.386,0.031,0.808,0.031,1.266v3.234h-0.773v-12.336h0.656l0.148,1.211h0.047c0.583-0.917,1.516-1.375,2.797-1.375
		c1.146,0,2.02,0.376,2.621,1.129s0.902,1.848,0.902,3.285c0,1.396-0.316,2.478-0.949,3.246S58.906,389.513,57.812,389.513z
		 M57.796,388.826c0.87,0,1.543-0.323,2.02-0.969s0.715-1.55,0.715-2.711c0-2.495-0.901-3.742-2.703-3.742
		c-0.99,0-1.716,0.272-2.18,0.816c-0.464,0.544-0.695,1.431-0.695,2.66v0.25c0,1.328,0.223,2.276,0.668,2.844
		S56.791,388.826,57.796,388.826z"/>
	<path style="fill:#444444;" d="M63.593,378.505c0-0.5,0.164-0.75,0.492-0.75c0.161,0,0.288,0.065,0.379,0.195
		c0.091,0.13,0.137,0.315,0.137,0.555c0,0.234-0.046,0.419-0.137,0.555c-0.091,0.136-0.218,0.203-0.379,0.203
		C63.757,379.263,63.593,379.01,63.593,378.505z M64.476,389.357h-0.773v-8.492h0.773V389.357z"/>
	<path style="fill:#444444;" d="M70.71,389.513c-1.214,0-2.164-0.383-2.852-1.148s-1.031-1.833-1.031-3.203
		c0-1.406,0.356-2.501,1.07-3.285c0.713-0.784,1.69-1.176,2.93-1.176c0.734,0,1.438,0.128,2.109,0.383l-0.211,0.688
		c-0.734-0.245-1.373-0.367-1.914-0.367c-1.042,0-1.831,0.321-2.367,0.965c-0.537,0.644-0.805,1.569-0.805,2.777
		c0,1.146,0.268,2.043,0.805,2.691c0.536,0.648,1.286,0.973,2.25,0.973c0.771,0,1.487-0.138,2.148-0.414v0.719
		C72.301,389.38,71.59,389.513,70.71,389.513z"/>
	<path style="fill:#444444;" d="M77.163,388.826c0.489,0,0.917-0.042,1.281-0.125v0.625c-0.375,0.125-0.808,0.188-1.297,0.188
		c-0.75,0-1.304-0.2-1.66-0.602c-0.357-0.401-0.535-1.031-0.535-1.891v-5.484h-1.258v-0.453l1.258-0.352l0.391-1.922h0.398v2.055
		h2.492v0.672h-2.492v5.375c0,0.651,0.114,1.133,0.344,1.445C76.314,388.669,76.674,388.826,77.163,388.826z"/>
	<path style="fill:#444444;" d="M80.952,380.865v5.5c0,0.854,0.18,1.476,0.539,1.863s0.917,0.582,1.672,0.582
		c1.01,0,1.754-0.255,2.23-0.766s0.715-1.341,0.715-2.492v-4.688h0.766v8.492h-0.656l-0.141-1.172h-0.047
		c-0.552,0.886-1.534,1.328-2.945,1.328c-1.933,0-2.898-1.034-2.898-3.102v-5.547H80.952z"/>
	<path style="fill:#444444;" d="M93.062,380.701c0.359,0,0.745,0.036,1.156,0.109l-0.148,0.742
		c-0.354-0.089-0.722-0.133-1.102-0.133c-0.724,0-1.318,0.308-1.781,0.922c-0.464,0.614-0.695,1.391-0.695,2.328v4.688h-0.773
		v-8.492h0.656l0.078,1.531h0.055c0.349-0.625,0.721-1.063,1.117-1.316C92.02,380.827,92.499,380.701,93.062,380.701z"/>
	<path style="fill:#444444;" d="M99.374,389.513c-1.234,0-2.197-0.38-2.887-1.141c-0.69-0.761-1.035-1.825-1.035-3.195
		c0-1.354,0.333-2.438,1-3.254c0.667-0.815,1.565-1.223,2.695-1.223c1,0,1.789,0.349,2.367,1.047s0.867,1.646,0.867,2.844v0.625
		h-6.117c0.01,1.167,0.282,2.058,0.816,2.672c0.534,0.614,1.298,0.922,2.293,0.922c0.484,0,0.91-0.034,1.277-0.102
		s0.832-0.214,1.395-0.438v0.703c-0.479,0.208-0.922,0.351-1.328,0.426S99.864,389.513,99.374,389.513z M99.148,381.388
		c-0.818,0-1.474,0.27-1.969,0.809c-0.495,0.539-0.784,1.316-0.867,2.332h5.25c0-0.984-0.214-1.754-0.641-2.309
		C100.494,381.666,99.903,381.388,99.148,381.388z"/>
	<path style="fill:#444444;" d="M109.991,387.146c0,0.761-0.289,1.345-0.867,1.754s-1.398,0.613-2.461,0.613
		c-1.136,0-2.037-0.175-2.703-0.523v-0.836c0.854,0.427,1.755,0.641,2.703,0.641c0.838,0,1.475-0.14,1.91-0.418
		c0.435-0.278,0.652-0.649,0.652-1.113c0-0.427-0.173-0.786-0.52-1.078c-0.347-0.292-0.916-0.578-1.707-0.859
		c-0.849-0.308-1.445-0.571-1.789-0.793s-0.603-0.472-0.777-0.75c-0.175-0.278-0.262-0.618-0.262-1.02
		c0-0.636,0.267-1.138,0.801-1.508c0.534-0.37,1.28-0.555,2.238-0.555c0.917,0,1.786,0.172,2.609,0.516l-0.289,0.703
		c-0.833-0.344-1.607-0.516-2.32-0.516c-0.693,0-1.242,0.114-1.648,0.344s-0.609,0.547-0.609,0.953c0,0.442,0.157,0.797,0.473,1.063
		c0.315,0.266,0.931,0.563,1.848,0.891c0.766,0.276,1.323,0.524,1.672,0.746c0.349,0.222,0.61,0.473,0.785,0.754
		C109.904,386.435,109.991,386.766,109.991,387.146z"/>
	<path style="fill:#444444;" d="M127.257,389.357l-0.195-1.344h-0.063c-0.427,0.547-0.866,0.934-1.316,1.16
		c-0.451,0.227-0.983,0.34-1.598,0.34c-0.833,0-1.482-0.214-1.945-0.641c-0.464-0.427-0.695-1.019-0.695-1.773
		c0-0.828,0.345-1.472,1.035-1.93c0.69-0.458,1.688-0.7,2.996-0.727l1.617-0.047v-0.563c0-0.808-0.164-1.417-0.492-1.828
		s-0.857-0.617-1.586-0.617c-0.787,0-1.602,0.219-2.445,0.656l-0.289-0.672c0.932-0.438,1.854-0.656,2.766-0.656
		c0.932,0,1.629,0.242,2.09,0.727s0.691,1.239,0.691,2.266v5.648H127.257z M124.132,388.81c0.906,0,1.621-0.259,2.145-0.777
		s0.785-1.238,0.785-2.16v-0.836l-1.484,0.063c-1.193,0.058-2.043,0.243-2.551,0.559s-0.762,0.806-0.762,1.473
		c0,0.531,0.163,0.944,0.488,1.238C123.078,388.663,123.538,388.81,124.132,388.81z"/>
	<path style="fill:#444444;" d="M133.921,380.701c0.359,0,0.745,0.036,1.156,0.109l-0.148,0.742
		c-0.354-0.089-0.722-0.133-1.102-0.133c-0.724,0-1.318,0.308-1.781,0.922c-0.464,0.614-0.695,1.391-0.695,2.328v4.688h-0.773
		v-8.492h0.656l0.078,1.531h0.055c0.349-0.625,0.721-1.063,1.117-1.316C132.879,380.827,133.358,380.701,133.921,380.701z"/>
	<path style="fill:#444444;" d="M140.233,389.513c-1.234,0-2.197-0.38-2.887-1.141c-0.69-0.761-1.035-1.825-1.035-3.195
		c0-1.354,0.333-2.438,1-3.254c0.667-0.815,1.565-1.223,2.695-1.223c1,0,1.789,0.349,2.367,1.047s0.867,1.646,0.867,2.844v0.625
		h-6.117c0.01,1.167,0.282,2.058,0.816,2.672c0.534,0.614,1.298,0.922,2.293,0.922c0.484,0,0.91-0.034,1.277-0.102
		s0.832-0.214,1.395-0.438v0.703c-0.479,0.208-0.922,0.351-1.328,0.426S140.722,389.513,140.233,389.513z M140.007,381.388
		c-0.818,0-1.474,0.27-1.969,0.809c-0.495,0.539-0.784,1.316-0.867,2.332h5.25c0-0.984-0.214-1.754-0.641-2.309
		C141.353,381.666,140.761,381.388,140.007,381.388z"/>
	<path style="fill:#444444;" d="M157.748,388.826c0.489,0,0.917-0.042,1.281-0.125v0.625c-0.375,0.125-0.808,0.188-1.297,0.188
		c-0.75,0-1.304-0.2-1.66-0.602c-0.357-0.401-0.535-1.031-0.535-1.891v-5.484h-1.258v-0.453l1.258-0.352l0.391-1.922h0.398v2.055
		h2.492v0.672h-2.492v5.375c0,0.651,0.114,1.133,0.344,1.445C156.899,388.669,157.259,388.826,157.748,388.826z"/>
	<path style="fill:#444444;" d="M166.787,389.357v-5.508c0-0.854-0.18-1.476-0.539-1.863s-0.917-0.582-1.672-0.582
		c-1.016,0-1.759,0.257-2.23,0.77c-0.472,0.513-0.707,1.345-0.707,2.496v4.688h-0.773v-12.156h0.773v3.867l-0.039,1.086h0.055
		c0.317-0.511,0.719-0.88,1.203-1.109s1.086-0.344,1.805-0.344c1.927,0,2.891,1.034,2.891,3.102v5.555H166.787z"/>
	<path style="fill:#444444;" d="M173.732,389.513c-1.234,0-2.195-0.38-2.887-1.141c-0.69-0.761-1.035-1.825-1.035-3.195
		c0-1.354,0.333-2.438,1-3.254c0.668-0.815,1.566-1.223,2.695-1.223c1,0,1.789,0.349,2.367,1.047s0.867,1.646,0.867,2.844v0.625
		h-6.117c0.011,1.167,0.283,2.058,0.816,2.672c0.535,0.614,1.299,0.922,2.293,0.922c0.484,0,0.91-0.034,1.277-0.102
		s0.832-0.214,1.395-0.438v0.703c-0.479,0.208-0.922,0.351-1.328,0.426S174.222,389.513,173.732,389.513z M173.506,381.388
		c-0.816,0-1.473,0.27-1.969,0.809c-0.494,0.539-0.783,1.316-0.867,2.332h5.25c0-0.984-0.213-1.754-0.641-2.309
		C174.853,381.666,174.261,381.388,173.506,381.388z"/>
	<path style="fill:#444444;" d="M190.865,389.357l-3.281-8.492h0.797l2.195,5.773c0.292,0.739,0.511,1.386,0.656,1.938h0.047
		c0.214-0.708,0.433-1.359,0.656-1.953l2.195-5.758h0.797l-3.281,8.492H190.865z"/>
	<path style="fill:#444444;" d="M196.24,378.505c0-0.5,0.164-0.75,0.492-0.75c0.161,0,0.288,0.065,0.379,0.195
		s0.137,0.315,0.137,0.555c0,0.234-0.046,0.419-0.137,0.555s-0.218,0.203-0.379,0.203C196.404,379.263,196.24,379.01,196.24,378.505
		z M197.123,389.357h-0.773v-8.492h0.773V389.357z"/>
	<path style="fill:#444444;" d="M203.396,389.513c-1.234,0-2.196-0.38-2.887-1.141s-1.035-1.825-1.035-3.195
		c0-1.354,0.333-2.438,1-3.254s1.565-1.223,2.695-1.223c1,0,1.789,0.349,2.367,1.047s0.867,1.646,0.867,2.844v0.625h-6.117
		c0.011,1.167,0.282,2.058,0.816,2.672s1.298,0.922,2.293,0.922c0.484,0,0.91-0.034,1.277-0.102s0.832-0.214,1.395-0.438v0.703
		c-0.479,0.208-0.922,0.351-1.328,0.426S203.885,389.513,203.396,389.513z M203.17,381.388c-0.817,0-1.474,0.27-1.969,0.809
		s-0.784,1.316-0.867,2.332h5.25c0-0.984-0.214-1.754-0.641-2.309S203.925,381.388,203.17,381.388z"/>
	<path style="fill:#444444;" d="M215.537,389.357l-1.859-5.68c-0.12-0.386-0.273-0.95-0.461-1.695h-0.047l-0.164,0.578l-0.352,1.133
		l-1.891,5.664h-0.766l-2.43-8.492h0.828l1.359,4.922c0.317,1.219,0.526,2.114,0.625,2.688h0.047
		c0.308-1.219,0.531-2.028,0.672-2.43l1.75-5.18h0.703l1.664,5.164c0.375,1.224,0.604,2.034,0.688,2.43h0.047
		c0.042-0.339,0.25-1.245,0.625-2.719l1.297-4.875h0.781l-2.305,8.492H215.537z"/>
	<path style="fill:#444444;" d="M225.584,387.146c0,0.761-0.289,1.345-0.867,1.754s-1.398,0.613-2.461,0.613
		c-1.136,0-2.036-0.175-2.703-0.523v-0.836c0.854,0.427,1.755,0.641,2.703,0.641c0.839,0,1.476-0.14,1.91-0.418
		s0.652-0.649,0.652-1.113c0-0.427-0.173-0.786-0.52-1.078s-0.915-0.578-1.707-0.859c-0.849-0.308-1.445-0.571-1.789-0.793
		s-0.603-0.472-0.777-0.75s-0.262-0.618-0.262-1.02c0-0.636,0.267-1.138,0.801-1.508s1.28-0.555,2.238-0.555
		c0.917,0,1.786,0.172,2.609,0.516l-0.289,0.703c-0.833-0.344-1.606-0.516-2.32-0.516c-0.692,0-1.242,0.114-1.648,0.344
		s-0.609,0.547-0.609,0.953c0,0.442,0.157,0.797,0.473,1.063s0.931,0.563,1.848,0.891c0.766,0.276,1.323,0.524,1.672,0.746
		s0.61,0.473,0.785,0.754S225.584,386.766,225.584,387.146z"/>
	<path style="fill:#444444;" d="M244.717,385.099c0,1.386-0.336,2.468-1.008,3.246s-1.599,1.168-2.781,1.168
		c-0.745,0-1.401-0.18-1.969-0.539s-1.003-0.875-1.305-1.547s-0.453-1.448-0.453-2.328c0-1.386,0.336-2.465,1.008-3.238
		s1.594-1.16,2.766-1.16c1.167,0,2.082,0.392,2.746,1.176S244.717,383.735,244.717,385.099z M238.013,385.099
		c0,1.167,0.257,2.077,0.77,2.73s1.238,0.98,2.176,0.98s1.663-0.327,2.176-0.98s0.77-1.563,0.77-2.73
		c0-1.172-0.259-2.081-0.777-2.727s-1.246-0.969-2.184-0.969s-1.66,0.321-2.168,0.965S238.013,383.922,238.013,385.099z"/>
	<path style="fill:#444444;" d="M250.224,381.537h-2v7.82h-0.773v-7.82h-1.578v-0.453l1.578-0.289v-0.656
		c0-1.042,0.191-1.806,0.574-2.293s1.009-0.73,1.879-0.73c0.469,0,0.938,0.07,1.406,0.211l-0.18,0.672
		c-0.417-0.13-0.831-0.195-1.242-0.195c-0.604,0-1.032,0.179-1.285,0.535s-0.379,0.937-0.379,1.738v0.789h2V381.537z"/>
	<path style="fill:#444444;" d="M264.028,388.826c0.489,0,0.917-0.042,1.281-0.125v0.625c-0.375,0.125-0.808,0.188-1.297,0.188
		c-0.75,0-1.304-0.2-1.66-0.602s-0.535-1.031-0.535-1.891v-5.484h-1.258v-0.453l1.258-0.352l0.391-1.922h0.398v2.055h2.492v0.672
		h-2.492v5.375c0,0.651,0.114,1.133,0.344,1.445S263.539,388.826,264.028,388.826z"/>
	<path style="fill:#444444;" d="M273.067,389.357v-5.508c0-0.854-0.18-1.476-0.539-1.863s-0.917-0.582-1.672-0.582
		c-1.016,0-1.759,0.257-2.23,0.77s-0.707,1.345-0.707,2.496v4.688h-0.773v-12.156h0.773v3.867l-0.039,1.086h0.055
		c0.317-0.511,0.719-0.88,1.203-1.109s1.086-0.344,1.805-0.344c1.927,0,2.891,1.034,2.891,3.102v5.555H273.067z"/>
	<path style="fill:#444444;" d="M280.012,389.513c-1.234,0-2.196-0.38-2.887-1.141s-1.035-1.825-1.035-3.195
		c0-1.354,0.333-2.438,1-3.254s1.565-1.223,2.695-1.223c1,0,1.789,0.349,2.367,1.047s0.867,1.646,0.867,2.844v0.625h-6.117
		c0.011,1.167,0.282,2.058,0.816,2.672s1.298,0.922,2.293,0.922c0.484,0,0.91-0.034,1.277-0.102s0.832-0.214,1.395-0.438v0.703
		c-0.479,0.208-0.922,0.351-1.328,0.426S280.502,389.513,280.012,389.513z M279.786,381.388c-0.817,0-1.474,0.27-1.969,0.809
		s-0.784,1.316-0.867,2.332h5.25c0-0.984-0.214-1.754-0.641-2.309S280.541,381.388,279.786,381.388z"/>
	<path style="fill:#444444;" d="M300.551,387.146c0,0.761-0.289,1.345-0.867,1.754s-1.398,0.613-2.461,0.613
		c-1.136,0-2.036-0.175-2.703-0.523v-0.836c0.854,0.427,1.755,0.641,2.703,0.641c0.839,0,1.476-0.14,1.91-0.418
		s0.652-0.649,0.652-1.113c0-0.427-0.173-0.786-0.52-1.078s-0.915-0.578-1.707-0.859c-0.849-0.308-1.445-0.571-1.789-0.793
		s-0.603-0.472-0.777-0.75s-0.262-0.618-0.262-1.02c0-0.636,0.267-1.138,0.801-1.508s1.28-0.555,2.238-0.555
		c0.917,0,1.786,0.172,2.609,0.516l-0.289,0.703c-0.833-0.344-1.606-0.516-2.32-0.516c-0.692,0-1.242,0.114-1.648,0.344
		s-0.609,0.547-0.609,0.953c0,0.442,0.157,0.797,0.473,1.063s0.931,0.563,1.848,0.891c0.766,0.276,1.323,0.524,1.672,0.746
		s0.61,0.473,0.785,0.754S300.551,386.766,300.551,387.146z"/>
	<path style="fill:#444444;" d="M303.496,385.63l4.336-4.766h0.938l-3.344,3.625l3.633,4.867h-0.93l-3.227-4.289l-1.391,1.266v3.023
		h-0.773v-12.156h0.773v6.094l-0.055,2.336H303.496z"/>
	<path style="fill:#444444;" d="M309.058,380.865h0.797l1.797,4.766c0.547,1.464,0.894,2.45,1.039,2.961h0.047
		c0.219-0.672,0.575-1.675,1.07-3.008l1.797-4.719h0.797l-3.805,9.867c-0.308,0.802-0.565,1.344-0.773,1.625
		s-0.452,0.492-0.73,0.633s-0.616,0.211-1.012,0.211c-0.297,0-0.628-0.055-0.992-0.164v-0.672c0.302,0.083,0.628,0.125,0.977,0.125
		c0.266,0,0.5-0.063,0.703-0.188s0.387-0.319,0.551-0.582s0.354-0.68,0.57-1.25s0.355-0.941,0.418-1.113L309.058,380.865z"/>
	<path style="fill:#444444;" d="M332.902,389.357l-0.195-1.344h-0.063c-0.427,0.547-0.866,0.934-1.316,1.16s-0.983,0.34-1.598,0.34
		c-0.833,0-1.481-0.214-1.945-0.641s-0.695-1.019-0.695-1.773c0-0.828,0.345-1.472,1.035-1.93s1.688-0.7,2.996-0.727l1.617-0.047
		v-0.563c0-0.808-0.164-1.417-0.492-1.828s-0.856-0.617-1.586-0.617c-0.786,0-1.602,0.219-2.445,0.656l-0.289-0.672
		c0.933-0.438,1.854-0.656,2.766-0.656c0.933,0,1.629,0.242,2.09,0.727s0.691,1.239,0.691,2.266v5.648H332.902z M329.777,388.81
		c0.906,0,1.621-0.259,2.145-0.777s0.785-1.238,0.785-2.16v-0.836l-1.484,0.063c-1.192,0.058-2.043,0.243-2.551,0.559
		s-0.762,0.806-0.762,1.473c0,0.531,0.163,0.944,0.488,1.238S329.183,388.81,329.777,388.81z"/>
	<path style="fill:#444444;" d="M338.465,388.826c0.489,0,0.917-0.042,1.281-0.125v0.625c-0.375,0.125-0.808,0.188-1.297,0.188
		c-0.75,0-1.304-0.2-1.66-0.602s-0.535-1.031-0.535-1.891v-5.484h-1.258v-0.453l1.258-0.352l0.391-1.922h0.398v2.055h2.492v0.672
		h-2.492v5.375c0,0.651,0.114,1.133,0.344,1.445S337.975,388.826,338.465,388.826z"/>
	<path style="fill:#444444;" d="M4.531,399.901c0.614,0,1.146,0.112,1.594,0.336c0.448,0.224,0.849,0.606,1.203,1.148h0.047
		c-0.031-0.656-0.047-1.3-0.047-1.93v-3.055h0.766v12.156H7.586L7.39,407.26H7.328c-0.646,0.969-1.573,1.453-2.781,1.453
		c-1.172,0-2.068-0.364-2.688-1.094c-0.62-0.729-0.93-1.792-0.93-3.188c0-1.469,0.307-2.591,0.922-3.367
		C2.466,400.289,3.359,399.901,4.531,399.901z M4.531,400.604c-0.927,0-1.624,0.325-2.09,0.977
		c-0.466,0.651-0.699,1.597-0.699,2.836c0,2.406,0.935,3.609,2.805,3.609c0.958,0,1.661-0.278,2.109-0.836
		c0.448-0.558,0.672-1.477,0.672-2.758v-0.133c0-1.313-0.22-2.257-0.66-2.832C6.227,400.892,5.515,400.604,4.531,400.604z"/>
	<path style="fill:#444444;" d="M10.836,397.706c0-0.5,0.164-0.75,0.492-0.75c0.161,0,0.288,0.065,0.379,0.195
		c0.091,0.13,0.137,0.315,0.137,0.555c0,0.234-0.046,0.419-0.137,0.555c-0.091,0.136-0.218,0.203-0.379,0.203
		C11,398.463,10.836,398.21,10.836,397.706z M11.719,408.557h-0.773v-8.492h0.773V408.557z"/>
	<path style="fill:#444444;" d="M17.719,400.737h-2v7.82h-0.773v-7.82h-1.578v-0.453l1.578-0.289v-0.656
		c0-1.042,0.191-1.806,0.574-2.293s1.009-0.73,1.879-0.73c0.469,0,0.938,0.07,1.406,0.211l-0.18,0.672
		c-0.417-0.13-0.831-0.195-1.242-0.195c-0.604,0-1.033,0.179-1.285,0.535c-0.253,0.356-0.379,0.937-0.379,1.738v0.789h2V400.737z
		 M22.515,400.737h-2v7.82h-0.773v-7.82h-1.578v-0.453l1.578-0.289v-0.656c0-1.042,0.191-1.806,0.574-2.293s1.009-0.73,1.879-0.73
		c0.469,0,0.938,0.07,1.406,0.211l-0.18,0.672c-0.417-0.13-0.831-0.195-1.242-0.195c-0.604,0-1.033,0.179-1.285,0.535
		c-0.253,0.356-0.379,0.937-0.379,1.738v0.789h2V400.737z"/>
	<path style="fill:#444444;" d="M27.594,408.713c-1.234,0-2.197-0.38-2.887-1.141c-0.69-0.761-1.035-1.825-1.035-3.195
		c0-1.354,0.333-2.438,1-3.254c0.667-0.815,1.565-1.223,2.695-1.223c1,0,1.789,0.349,2.367,1.047s0.867,1.646,0.867,2.844v0.625
		h-6.117c0.01,1.167,0.282,2.058,0.816,2.672c0.534,0.614,1.298,0.922,2.293,0.922c0.484,0,0.91-0.034,1.277-0.102
		s0.832-0.214,1.395-0.438v0.703c-0.479,0.208-0.922,0.351-1.328,0.426S28.083,408.713,27.594,408.713z M27.367,400.588
		c-0.818,0-1.474,0.27-1.969,0.809c-0.495,0.539-0.784,1.316-0.867,2.332h5.25c0-0.984-0.214-1.754-0.641-2.309
		C28.713,400.866,28.122,400.588,27.367,400.588z"/>
	<path style="fill:#444444;" d="M36.289,399.901c0.359,0,0.745,0.036,1.156,0.109l-0.148,0.742
		c-0.354-0.089-0.722-0.133-1.102-0.133c-0.724,0-1.318,0.308-1.781,0.922c-0.464,0.614-0.695,1.391-0.695,2.328v4.688h-0.773
		v-8.492h0.656l0.078,1.531h0.055c0.349-0.625,0.721-1.063,1.117-1.316C35.247,400.027,35.726,399.901,36.289,399.901z"/>
	<path style="fill:#444444;" d="M42.601,408.713c-1.234,0-2.197-0.38-2.887-1.141c-0.69-0.761-1.035-1.825-1.035-3.195
		c0-1.354,0.333-2.438,1-3.254c0.667-0.815,1.565-1.223,2.695-1.223c1,0,1.789,0.349,2.367,1.047s0.867,1.646,0.867,2.844v0.625
		h-6.117c0.01,1.167,0.282,2.058,0.816,2.672c0.534,0.614,1.298,0.922,2.293,0.922c0.484,0,0.91-0.034,1.277-0.102
		s0.832-0.214,1.395-0.438v0.703c-0.479,0.208-0.922,0.351-1.328,0.426S43.091,408.713,42.601,408.713z M42.375,400.588
		c-0.818,0-1.474,0.27-1.969,0.809c-0.495,0.539-0.784,1.316-0.867,2.332h5.25c0-0.984-0.214-1.754-0.641-2.309
		C43.721,400.866,43.13,400.588,42.375,400.588z"/>
	<path style="fill:#444444;" d="M53.875,408.557v-5.508c0-0.854-0.18-1.476-0.539-1.863s-0.917-0.582-1.672-0.582
		c-1.016,0-1.759,0.257-2.23,0.77c-0.472,0.513-0.707,1.345-0.707,2.496v4.688h-0.773v-8.492h0.656l0.148,1.164h0.047
		c0.552-0.886,1.534-1.328,2.945-1.328c1.927,0,2.891,1.034,2.891,3.102v5.555H53.875z"/>
	<path style="fill:#444444;" d="M59.633,408.026c0.489,0,0.917-0.042,1.281-0.125v0.625c-0.375,0.125-0.808,0.188-1.297,0.188
		c-0.75,0-1.304-0.2-1.66-0.602c-0.357-0.401-0.535-1.031-0.535-1.891v-5.484h-1.258v-0.453l1.258-0.352l0.391-1.922h0.398v2.055
		h2.492v0.672h-2.492v5.375c0,0.651,0.114,1.133,0.344,1.445C58.783,407.87,59.143,408.026,59.633,408.026z"/>
	<path style="fill:#444444;" d="M69.038,408.026c0.489,0,0.917-0.042,1.281-0.125v0.625c-0.375,0.125-0.808,0.188-1.297,0.188
		c-0.75,0-1.304-0.2-1.66-0.602c-0.357-0.401-0.535-1.031-0.535-1.891v-5.484H65.57v-0.453l1.258-0.352l0.391-1.922h0.398v2.055
		h2.492v0.672h-2.492v5.375c0,0.651,0.114,1.133,0.344,1.445C68.189,407.87,68.549,408.026,69.038,408.026z"/>
	<path style="fill:#444444;" d="M72.046,397.706c0-0.5,0.164-0.75,0.492-0.75c0.161,0,0.288,0.065,0.379,0.195
		c0.091,0.13,0.137,0.315,0.137,0.555c0,0.234-0.046,0.419-0.137,0.555c-0.091,0.136-0.218,0.203-0.379,0.203
		C72.21,398.463,72.046,398.21,72.046,397.706z M72.929,408.557h-0.773v-8.492h0.773V408.557z"/>
	<path style="fill:#444444;" d="M86.382,408.557v-5.57c0-0.828-0.162-1.433-0.484-1.813c-0.323-0.38-0.818-0.57-1.484-0.57
		c-0.87,0-1.513,0.239-1.93,0.719c-0.417,0.479-0.625,1.231-0.625,2.258v4.977H81.07v-5.805c0-1.433-0.656-2.148-1.969-2.148
		c-0.891,0-1.539,0.259-1.945,0.777s-0.609,1.348-0.609,2.488v4.688h-0.773v-8.492h0.641l0.164,1.164h0.047
		c0.234-0.422,0.567-0.749,1-0.98c0.432-0.231,0.909-0.348,1.43-0.348c1.338,0,2.198,0.503,2.578,1.508h0.031
		c0.276-0.484,0.647-0.856,1.113-1.117c0.466-0.261,0.996-0.391,1.59-0.391c0.927,0,1.622,0.247,2.086,0.742
		c0.463,0.495,0.695,1.281,0.695,2.359v5.555H86.382z"/>
	<path style="fill:#444444;" d="M93.327,408.713c-1.234,0-2.197-0.38-2.887-1.141c-0.69-0.761-1.035-1.825-1.035-3.195
		c0-1.354,0.333-2.438,1-3.254c0.667-0.815,1.565-1.223,2.695-1.223c1,0,1.789,0.349,2.367,1.047s0.867,1.646,0.867,2.844v0.625
		h-6.117c0.01,1.167,0.282,2.058,0.816,2.672c0.534,0.614,1.298,0.922,2.293,0.922c0.484,0,0.91-0.034,1.277-0.102
		s0.832-0.214,1.395-0.438v0.703c-0.479,0.208-0.922,0.351-1.328,0.426S93.817,408.713,93.327,408.713z M93.101,400.588
		c-0.818,0-1.474,0.27-1.969,0.809c-0.495,0.539-0.784,1.316-0.867,2.332h5.25c0-0.984-0.214-1.754-0.641-2.309
		C94.447,400.866,93.856,400.588,93.101,400.588z"/>
	<path style="fill:#444444;" d="M103.945,406.346c0,0.761-0.289,1.345-0.867,1.754s-1.398,0.613-2.461,0.613
		c-1.136,0-2.037-0.175-2.703-0.523v-0.836c0.854,0.427,1.755,0.641,2.703,0.641c0.838,0,1.475-0.14,1.91-0.418
		c0.435-0.278,0.652-0.649,0.652-1.113c0-0.427-0.173-0.786-0.52-1.078c-0.347-0.292-0.916-0.578-1.707-0.859
		c-0.849-0.308-1.445-0.571-1.789-0.793s-0.603-0.472-0.777-0.75c-0.175-0.278-0.262-0.618-0.262-1.02
		c0-0.636,0.267-1.138,0.801-1.508c0.534-0.37,1.28-0.555,2.238-0.555c0.917,0,1.786,0.172,2.609,0.516l-0.289,0.703
		c-0.833-0.344-1.607-0.516-2.32-0.516c-0.693,0-1.242,0.114-1.648,0.344s-0.609,0.547-0.609,0.953c0,0.442,0.157,0.797,0.473,1.063
		c0.315,0.266,0.931,0.563,1.848,0.891c0.766,0.276,1.323,0.524,1.672,0.746c0.349,0.222,0.61,0.473,0.785,0.754
		C103.857,405.635,103.945,405.966,103.945,406.346z"/>
	<path style="fill:#444444;" d="M117.202,404.299c0,1.386-0.336,2.468-1.008,3.246s-1.599,1.168-2.781,1.168
		c-0.745,0-1.401-0.18-1.969-0.539c-0.568-0.359-1.003-0.875-1.305-1.547c-0.302-0.672-0.453-1.448-0.453-2.328
		c0-1.386,0.336-2.465,1.008-3.238s1.594-1.16,2.766-1.16c1.167,0,2.082,0.392,2.746,1.176S117.202,402.935,117.202,404.299z
		 M110.499,404.299c0,1.167,0.256,2.077,0.77,2.73c0.513,0.653,1.238,0.98,2.176,0.98s1.663-0.327,2.176-0.98
		c0.513-0.653,0.77-1.563,0.77-2.73c0-1.172-0.259-2.081-0.777-2.727c-0.519-0.646-1.246-0.969-2.184-0.969s-1.66,0.321-2.168,0.965
		S110.499,403.123,110.499,404.299z"/>
	<path style="fill:#444444;" d="M122.71,400.737h-2v7.82h-0.773v-7.82h-1.578v-0.453l1.578-0.289v-0.656
		c0-1.042,0.191-1.806,0.574-2.293s1.009-0.73,1.879-0.73c0.469,0,0.938,0.07,1.406,0.211l-0.18,0.672
		c-0.417-0.13-0.831-0.195-1.242-0.195c-0.604,0-1.033,0.179-1.285,0.535c-0.253,0.356-0.379,0.937-0.379,1.738v0.789h2V400.737z"/>
	<path style="fill:#444444;" d="M130.639,408.026c0.489,0,0.917-0.042,1.281-0.125v0.625c-0.375,0.125-0.808,0.188-1.297,0.188
		c-0.75,0-1.304-0.2-1.66-0.602c-0.357-0.401-0.535-1.031-0.535-1.891v-5.484h-1.258v-0.453l1.258-0.352l0.391-1.922h0.398v2.055
		h2.492v0.672h-2.492v5.375c0,0.651,0.114,1.133,0.344,1.445C129.79,407.87,130.149,408.026,130.639,408.026z"/>
	<path style="fill:#444444;" d="M139.678,408.557v-5.508c0-0.854-0.18-1.476-0.539-1.863s-0.917-0.582-1.672-0.582
		c-1.016,0-1.759,0.257-2.23,0.77c-0.472,0.513-0.707,1.345-0.707,2.496v4.688h-0.773v-12.156h0.773v3.867l-0.039,1.086h0.055
		c0.317-0.511,0.719-0.88,1.203-1.109s1.086-0.344,1.805-0.344c1.927,0,2.891,1.034,2.891,3.102v5.555H139.678z"/>
	<path style="fill:#444444;" d="M146.623,408.713c-1.234,0-2.197-0.38-2.887-1.141c-0.69-0.761-1.035-1.825-1.035-3.195
		c0-1.354,0.333-2.438,1-3.254c0.667-0.815,1.565-1.223,2.695-1.223c1,0,1.789,0.349,2.367,1.047s0.867,1.646,0.867,2.844v0.625
		h-6.117c0.01,1.167,0.282,2.058,0.816,2.672c0.534,0.614,1.298,0.922,2.293,0.922c0.484,0,0.91-0.034,1.277-0.102
		s0.832-0.214,1.395-0.438v0.703c-0.479,0.208-0.922,0.351-1.328,0.426S147.113,408.713,146.623,408.713z M146.397,400.588
		c-0.818,0-1.474,0.27-1.969,0.809c-0.495,0.539-0.784,1.316-0.867,2.332h5.25c0-0.984-0.214-1.754-0.641-2.309
		C147.743,400.866,147.152,400.588,146.397,400.588z"/>
	<path style="fill:#444444;" d="M159.131,399.901c0.614,0,1.146,0.112,1.594,0.336c0.448,0.224,0.849,0.606,1.203,1.148h0.047
		c-0.031-0.656-0.047-1.3-0.047-1.93v-3.055h0.766v12.156h-0.508l-0.195-1.297h-0.063c-0.646,0.969-1.573,1.453-2.781,1.453
		c-1.172,0-2.068-0.364-2.688-1.094c-0.62-0.729-0.93-1.792-0.93-3.188c0-1.469,0.307-2.591,0.922-3.367
		C157.065,400.289,157.959,399.901,159.131,399.901z M159.131,400.604c-0.927,0-1.624,0.325-2.09,0.977
		c-0.466,0.651-0.699,1.597-0.699,2.836c0,2.406,0.935,3.609,2.805,3.609c0.958,0,1.661-0.278,2.109-0.836
		c0.448-0.558,0.672-1.477,0.672-2.758v-0.133c0-1.313-0.22-2.257-0.66-2.832C160.827,400.892,160.115,400.604,159.131,400.604z"/>
	<path style="fill:#444444;" d="M170.701,408.557l-0.195-1.344h-0.063c-0.427,0.547-0.866,0.934-1.316,1.16
		c-0.451,0.227-0.983,0.34-1.598,0.34c-0.833,0-1.482-0.214-1.945-0.641c-0.464-0.427-0.695-1.019-0.695-1.773
		c0-0.828,0.345-1.472,1.035-1.93c0.69-0.458,1.688-0.7,2.996-0.727l1.617-0.047v-0.563c0-0.808-0.164-1.417-0.492-1.828
		s-0.857-0.617-1.586-0.617c-0.787,0-1.602,0.219-2.445,0.656l-0.289-0.672c0.932-0.438,1.854-0.656,2.766-0.656
		c0.932,0,1.629,0.242,2.09,0.727s0.691,1.239,0.691,2.266v5.648H170.701z M167.576,408.01c0.906,0,1.621-0.259,2.145-0.777
		s0.785-1.238,0.785-2.16v-0.836l-1.484,0.063c-1.193,0.058-2.043,0.243-2.551,0.559s-0.762,0.806-0.762,1.473
		c0,0.531,0.163,0.944,0.488,1.238C166.522,407.863,166.982,408.01,167.576,408.01z"/>
	<path style="fill:#444444;" d="M172.599,400.065h0.797l1.797,4.766c0.547,1.464,0.894,2.45,1.039,2.961h0.047
		c0.219-0.672,0.575-1.675,1.07-3.008l1.797-4.719h0.797l-3.805,9.867c-0.308,0.802-0.565,1.344-0.773,1.625
		s-0.452,0.492-0.73,0.633s-0.616,0.211-1.012,0.211c-0.297,0-0.628-0.055-0.992-0.164v-0.672c0.302,0.083,0.628,0.125,0.977,0.125
		c0.266,0,0.5-0.063,0.703-0.188s0.387-0.319,0.551-0.582s0.354-0.68,0.57-1.25s0.355-0.941,0.418-1.113L172.599,400.065z"/>
	<path style="fill:#444444;" d="M181.209,407.948c0-0.511,0.208-0.766,0.625-0.766c0.427,0,0.641,0.255,0.641,0.766
		s-0.214,0.766-0.641,0.766C181.417,408.713,181.209,408.458,181.209,407.948z"/>
	<path style="fill:#444444;" d="M189.412,397.135h3.133c1.411,0,2.448,0.239,3.109,0.719s0.992,1.203,0.992,2.172
		c0,0.661-0.202,1.212-0.605,1.652s-0.993,0.723-1.77,0.848v0.047c0.911,0.136,1.582,0.423,2.012,0.863s0.645,1.054,0.645,1.84
		c0,1.052-0.349,1.862-1.047,2.43s-1.688,0.852-2.969,0.852h-3.5V397.135z M190.209,402.221h2.516c1.073,0,1.853-0.179,2.34-0.535
		s0.73-0.915,0.73-1.676s-0.274-1.313-0.824-1.656s-1.368-0.516-2.457-0.516h-2.305V402.221z M190.209,402.924v4.93h2.688
		c2.114,0,3.172-0.859,3.172-2.578c0-1.567-1.114-2.352-3.344-2.352H190.209z"/>
	<path style="fill:#444444;" d="M199.92,400.065v5.5c0,0.854,0.18,1.476,0.539,1.863s0.917,0.582,1.672,0.582
		c1.011,0,1.754-0.255,2.23-0.766s0.715-1.341,0.715-2.492v-4.688h0.766v8.492h-0.656l-0.141-1.172h-0.047
		c-0.552,0.886-1.534,1.328-2.945,1.328c-1.933,0-2.898-1.034-2.898-3.102v-5.547H199.92z"/>
	<path style="fill:#444444;" d="M210.927,408.026c0.489,0,0.917-0.042,1.281-0.125v0.625c-0.375,0.125-0.808,0.188-1.297,0.188
		c-0.75,0-1.304-0.2-1.66-0.602s-0.535-1.031-0.535-1.891v-5.484h-1.258v-0.453l1.258-0.352l0.391-1.922h0.398v2.055h2.492v0.672
		h-2.492v5.375c0,0.651,0.114,1.133,0.344,1.445S210.438,408.026,210.927,408.026z"/>
	<path style="fill:#444444;" d="M225.114,404.299c0,1.386-0.336,2.468-1.008,3.246s-1.599,1.168-2.781,1.168
		c-0.745,0-1.401-0.18-1.969-0.539s-1.003-0.875-1.305-1.547s-0.453-1.448-0.453-2.328c0-1.386,0.336-2.465,1.008-3.238
		s1.594-1.16,2.766-1.16c1.167,0,2.082,0.392,2.746,1.176S225.114,402.935,225.114,404.299z M218.411,404.299
		c0,1.167,0.257,2.077,0.77,2.73s1.238,0.98,2.176,0.98s1.663-0.327,2.176-0.98s0.77-1.563,0.77-2.73
		c0-1.172-0.259-2.081-0.777-2.727s-1.246-0.969-2.184-0.969s-1.66,0.321-2.168,0.965S218.411,403.123,218.411,404.299z"/>
	<path style="fill:#444444;" d="M233.387,408.557v-5.508c0-0.854-0.18-1.476-0.539-1.863s-0.917-0.582-1.672-0.582
		c-1.016,0-1.759,0.257-2.23,0.77s-0.707,1.345-0.707,2.496v4.688h-0.773v-8.492h0.656l0.148,1.164h0.047
		c0.552-0.886,1.534-1.328,2.945-1.328c1.927,0,2.891,1.034,2.891,3.102v5.555H233.387z"/>
	<path style="fill:#444444;" d="M237.677,408.557h-0.773v-12.156h0.773V408.557z"/>
	<path style="fill:#444444;" d="M239.098,400.065h0.797l1.797,4.766c0.547,1.464,0.894,2.45,1.039,2.961h0.047
		c0.219-0.672,0.575-1.675,1.07-3.008l1.797-4.719h0.797l-3.805,9.867c-0.308,0.802-0.565,1.344-0.773,1.625
		s-0.452,0.492-0.73,0.633s-0.616,0.211-1.012,0.211c-0.297,0-0.628-0.055-0.992-0.164v-0.672c0.302,0.083,0.628,0.125,0.977,0.125
		c0.266,0,0.5-0.063,0.703-0.188s0.387-0.319,0.551-0.582s0.354-0.68,0.57-1.25s0.355-0.941,0.418-1.113L239.098,400.065z"/>
	<path style="fill:#444444;" d="M258.934,404.299c0,1.386-0.336,2.468-1.008,3.246s-1.599,1.168-2.781,1.168
		c-0.745,0-1.401-0.18-1.969-0.539s-1.003-0.875-1.305-1.547s-0.453-1.448-0.453-2.328c0-1.386,0.336-2.465,1.008-3.238
		s1.594-1.16,2.766-1.16c1.167,0,2.082,0.392,2.746,1.176S258.934,402.935,258.934,404.299z M252.231,404.299
		c0,1.167,0.257,2.077,0.77,2.73s1.238,0.98,2.176,0.98s1.663-0.327,2.176-0.98s0.77-1.563,0.77-2.73
		c0-1.172-0.259-2.081-0.777-2.727s-1.246-0.969-2.184-0.969s-1.66,0.321-2.168,0.965S252.231,403.123,252.231,404.299z"/>
	<path style="fill:#444444;" d="M267.208,408.557v-5.508c0-0.854-0.18-1.476-0.539-1.863s-0.917-0.582-1.672-0.582
		c-1.016,0-1.759,0.257-2.23,0.77s-0.707,1.345-0.707,2.496v4.688h-0.773v-8.492h0.656l0.148,1.164h0.047
		c0.552-0.886,1.534-1.328,2.945-1.328c1.927,0,2.891,1.034,2.891,3.102v5.555H267.208z"/>
	<path style="fill:#444444;" d="M274.153,408.713c-1.234,0-2.196-0.38-2.887-1.141s-1.035-1.825-1.035-3.195
		c0-1.354,0.333-2.438,1-3.254s1.565-1.223,2.695-1.223c1,0,1.789,0.349,2.367,1.047s0.867,1.646,0.867,2.844v0.625h-6.117
		c0.011,1.167,0.282,2.058,0.816,2.672s1.298,0.922,2.293,0.922c0.484,0,0.91-0.034,1.277-0.102s0.832-0.214,1.395-0.438v0.703
		c-0.479,0.208-0.922,0.351-1.328,0.426S274.642,408.713,274.153,408.713z M273.927,400.588c-0.817,0-1.474,0.27-1.969,0.809
		s-0.784,1.316-0.867,2.332h5.25c0-0.984-0.214-1.754-0.641-2.309S274.681,400.588,273.927,400.588z"/>
	<path style="fill:#444444;" d="M290.574,404.299c0,1.386-0.336,2.468-1.008,3.246s-1.599,1.168-2.781,1.168
		c-0.745,0-1.401-0.18-1.969-0.539s-1.003-0.875-1.305-1.547s-0.453-1.448-0.453-2.328c0-1.386,0.336-2.465,1.008-3.238
		s1.594-1.16,2.766-1.16c1.167,0,2.082,0.392,2.746,1.176S290.574,402.935,290.574,404.299z M283.871,404.299
		c0,1.167,0.257,2.077,0.77,2.73s1.238,0.98,2.176,0.98s1.663-0.327,2.176-0.98s0.77-1.563,0.77-2.73
		c0-1.172-0.259-2.081-0.777-2.727s-1.246-0.969-2.184-0.969s-1.66,0.321-2.168,0.965S283.871,403.123,283.871,404.299z"/>
	<path style="fill:#444444;" d="M296.082,400.737h-2v7.82h-0.773v-7.82h-1.578v-0.453l1.578-0.289v-0.656
		c0-1.042,0.191-1.806,0.574-2.293s1.009-0.73,1.879-0.73c0.469,0,0.938,0.07,1.406,0.211l-0.18,0.672
		c-0.417-0.13-0.831-0.195-1.242-0.195c-0.604,0-1.032,0.179-1.285,0.535s-0.379,0.937-0.379,1.738v0.789h2V400.737z"/>
	<path style="fill:#444444;" d="M304.011,408.026c0.489,0,0.917-0.042,1.281-0.125v0.625c-0.375,0.125-0.808,0.188-1.297,0.188
		c-0.75,0-1.304-0.2-1.66-0.602s-0.535-1.031-0.535-1.891v-5.484h-1.258v-0.453l1.258-0.352l0.391-1.922h0.398v2.055h2.492v0.672
		h-2.492v5.375c0,0.651,0.114,1.133,0.344,1.445S303.522,408.026,304.011,408.026z"/>
	<path style="fill:#444444;" d="M313.051,408.557v-5.508c0-0.854-0.18-1.476-0.539-1.863s-0.917-0.582-1.672-0.582
		c-1.016,0-1.759,0.257-2.23,0.77s-0.707,1.345-0.707,2.496v4.688h-0.773v-12.156h0.773v3.867l-0.039,1.086h0.055
		c0.317-0.511,0.719-0.88,1.203-1.109s1.086-0.344,1.805-0.344c1.927,0,2.891,1.034,2.891,3.102v5.555H313.051z"/>
	<path style="fill:#444444;" d="M319.996,408.713c-1.234,0-2.196-0.38-2.887-1.141s-1.035-1.825-1.035-3.195
		c0-1.354,0.333-2.438,1-3.254s1.565-1.223,2.695-1.223c1,0,1.789,0.349,2.367,1.047s0.867,1.646,0.867,2.844v0.625h-6.117
		c0.011,1.167,0.282,2.058,0.816,2.672s1.298,0.922,2.293,0.922c0.484,0,0.91-0.034,1.277-0.102s0.832-0.214,1.395-0.438v0.703
		c-0.479,0.208-0.922,0.351-1.328,0.426S320.485,408.713,319.996,408.713z M319.769,400.588c-0.817,0-1.474,0.27-1.969,0.809
		s-0.784,1.316-0.867,2.332h5.25c0-0.984-0.214-1.754-0.641-2.309S320.524,400.588,319.769,400.588z"/>
	<path style="fill:#444444;" d="M330.613,406.346c0,0.761-0.289,1.345-0.867,1.754s-1.398,0.613-2.461,0.613
		c-1.136,0-2.036-0.175-2.703-0.523v-0.836c0.854,0.427,1.755,0.641,2.703,0.641c0.839,0,1.476-0.14,1.91-0.418
		s0.652-0.649,0.652-1.113c0-0.427-0.173-0.786-0.52-1.078s-0.915-0.578-1.707-0.859c-0.849-0.308-1.445-0.571-1.789-0.793
		s-0.603-0.472-0.777-0.75s-0.262-0.618-0.262-1.02c0-0.636,0.267-1.138,0.801-1.508s1.28-0.555,2.238-0.555
		c0.917,0,1.786,0.172,2.609,0.516l-0.289,0.703c-0.833-0.344-1.606-0.516-2.32-0.516c-0.692,0-1.242,0.114-1.648,0.344
		s-0.609,0.547-0.609,0.953c0,0.442,0.157,0.797,0.473,1.063s0.931,0.563,1.848,0.891c0.766,0.276,1.323,0.524,1.672,0.746
		s0.61,0.473,0.785,0.754S330.613,405.966,330.613,406.346z"/>
	<path style="fill:#444444;" d="M336.23,408.713c-1.234,0-2.196-0.38-2.887-1.141s-1.035-1.825-1.035-3.195
		c0-1.354,0.333-2.438,1-3.254s1.565-1.223,2.695-1.223c1,0,1.789,0.349,2.367,1.047s0.867,1.646,0.867,2.844v0.625h-6.117
		c0.011,1.167,0.282,2.058,0.816,2.672s1.298,0.922,2.293,0.922c0.484,0,0.91-0.034,1.277-0.102s0.832-0.214,1.395-0.438v0.703
		c-0.479,0.208-0.922,0.351-1.328,0.426S336.719,408.713,336.23,408.713z M336.004,400.588c-0.817,0-1.474,0.27-1.969,0.809
		s-0.784,1.316-0.867,2.332h5.25c0-0.984-0.214-1.754-0.641-2.309S336.759,400.588,336.004,400.588z"/>
	<path style="fill:#444444;" d="M3.281,427.756L0,419.264h0.797l2.195,5.773c0.292,0.739,0.51,1.386,0.656,1.938h0.047
		c0.213-0.708,0.432-1.359,0.656-1.953l2.195-5.758h0.797l-3.281,8.492H3.281z"/>
	<path style="fill:#444444;" d="M8.656,416.905c0-0.5,0.164-0.75,0.492-0.75c0.161,0,0.288,0.065,0.379,0.195
		c0.091,0.13,0.137,0.315,0.137,0.555c0,0.234-0.046,0.419-0.137,0.555c-0.091,0.136-0.218,0.203-0.379,0.203
		C8.82,417.663,8.656,417.41,8.656,416.905z M9.539,427.756H8.765v-8.492h0.773V427.756z"/>
	<path style="fill:#444444;" d="M15.812,427.913c-1.234,0-2.197-0.38-2.887-1.141c-0.69-0.761-1.035-1.825-1.035-3.195
		c0-1.354,0.333-2.438,1-3.254c0.667-0.815,1.565-1.223,2.695-1.223c1,0,1.789,0.349,2.367,1.047s0.867,1.646,0.867,2.844v0.625
		h-6.117c0.01,1.167,0.282,2.058,0.816,2.672c0.534,0.614,1.298,0.922,2.293,0.922c0.484,0,0.91-0.034,1.277-0.102
		s0.832-0.214,1.395-0.438v0.703c-0.479,0.208-0.922,0.351-1.328,0.426S16.302,427.913,15.812,427.913z M15.586,419.788
		c-0.818,0-1.474,0.27-1.969,0.809c-0.495,0.539-0.784,1.316-0.867,2.332H18c0-0.984-0.214-1.754-0.641-2.309
		C16.932,420.065,16.341,419.788,15.586,419.788z"/>
	<path style="fill:#444444;" d="M27.953,427.756l-1.859-5.68c-0.12-0.386-0.273-0.95-0.461-1.695h-0.047l-0.164,0.578l-0.352,1.133
		l-1.891,5.664h-0.766l-2.43-8.492h0.828l1.359,4.922c0.317,1.219,0.526,2.114,0.625,2.688h0.047
		c0.307-1.219,0.531-2.028,0.672-2.43l1.75-5.18h0.703l1.664,5.164c0.375,1.224,0.604,2.034,0.688,2.43h0.047
		c0.042-0.339,0.25-1.245,0.625-2.719l1.297-4.875h0.781l-2.305,8.492H27.953z"/>
	<path style="fill:#444444;" d="M38,425.545c0,0.761-0.289,1.345-0.867,1.754s-1.398,0.613-2.461,0.613
		c-1.136,0-2.037-0.175-2.703-0.523v-0.836c0.854,0.427,1.755,0.641,2.703,0.641c0.838,0,1.475-0.14,1.91-0.418
		c0.435-0.278,0.652-0.649,0.652-1.113c0-0.427-0.173-0.786-0.52-1.078c-0.347-0.292-0.916-0.578-1.707-0.859
		c-0.849-0.308-1.445-0.571-1.789-0.793s-0.603-0.472-0.777-0.75c-0.175-0.278-0.262-0.618-0.262-1.02
		c0-0.636,0.267-1.138,0.801-1.508c0.534-0.37,1.28-0.555,2.238-0.555c0.917,0,1.786,0.172,2.609,0.516l-0.289,0.703
		c-0.833-0.344-1.607-0.516-2.32-0.516c-0.693,0-1.242,0.114-1.648,0.344s-0.609,0.547-0.609,0.953c0,0.442,0.157,0.797,0.473,1.063
		c0.315,0.266,0.931,0.563,1.848,0.891c0.766,0.276,1.323,0.524,1.672,0.746c0.349,0.222,0.61,0.473,0.785,0.754
		C37.912,424.834,38,425.166,38,425.545z"/>
	<path style="fill:#444444;" d="M44.234,416.905c0-0.5,0.164-0.75,0.492-0.75c0.161,0,0.288,0.065,0.379,0.195
		c0.091,0.13,0.137,0.315,0.137,0.555c0,0.234-0.046,0.419-0.137,0.555c-0.091,0.136-0.218,0.203-0.379,0.203
		C44.398,417.663,44.234,417.41,44.234,416.905z M45.117,427.756h-0.773v-8.492h0.773V427.756z"/>
	<path style="fill:#444444;" d="M53.226,425.545c0,0.761-0.289,1.345-0.867,1.754s-1.398,0.613-2.461,0.613
		c-1.136,0-2.037-0.175-2.703-0.523v-0.836c0.854,0.427,1.755,0.641,2.703,0.641c0.838,0,1.475-0.14,1.91-0.418
		c0.435-0.278,0.652-0.649,0.652-1.113c0-0.427-0.173-0.786-0.52-1.078c-0.347-0.292-0.916-0.578-1.707-0.859
		c-0.849-0.308-1.445-0.571-1.789-0.793s-0.603-0.472-0.777-0.75c-0.175-0.278-0.262-0.618-0.262-1.02
		c0-0.636,0.267-1.138,0.801-1.508c0.534-0.37,1.28-0.555,2.238-0.555c0.917,0,1.786,0.172,2.609,0.516l-0.289,0.703
		c-0.833-0.344-1.607-0.516-2.32-0.516c-0.693,0-1.242,0.114-1.648,0.344s-0.609,0.547-0.609,0.953c0,0.442,0.157,0.797,0.473,1.063
		c0.315,0.266,0.931,0.563,1.848,0.891c0.766,0.276,1.323,0.524,1.672,0.746c0.349,0.222,0.61,0.473,0.785,0.754
		C53.139,424.834,53.226,425.166,53.226,425.545z"/>
	<path style="fill:#444444;" d="M65.492,427.756v-5.508c0-0.854-0.18-1.476-0.539-1.863s-0.917-0.582-1.672-0.582
		c-1.016,0-1.759,0.257-2.23,0.77c-0.472,0.513-0.707,1.345-0.707,2.496v4.688H59.57v-8.492h0.656l0.148,1.164h0.047
		c0.552-0.886,1.534-1.328,2.945-1.328c1.927,0,2.891,1.034,2.891,3.102v5.555H65.492z"/>
	<path style="fill:#444444;" d="M76.031,423.499c0,1.386-0.336,2.468-1.008,3.246s-1.599,1.168-2.781,1.168
		c-0.745,0-1.401-0.18-1.969-0.539c-0.568-0.359-1.003-0.875-1.305-1.547c-0.302-0.672-0.453-1.448-0.453-2.328
		c0-1.386,0.336-2.465,1.008-3.238s1.594-1.16,2.766-1.16c1.167,0,2.082,0.392,2.746,1.176S76.031,422.134,76.031,423.499z
		 M69.328,423.499c0,1.167,0.256,2.077,0.77,2.73c0.513,0.653,1.238,0.98,2.176,0.98s1.663-0.327,2.176-0.98
		c0.513-0.653,0.77-1.563,0.77-2.73c0-1.172-0.259-2.081-0.777-2.727c-0.519-0.646-1.246-0.969-2.184-0.969s-1.66,0.321-2.168,0.965
		S69.328,422.322,69.328,423.499z"/>
	<path style="fill:#444444;" d="M80.625,427.225c0.489,0,0.917-0.042,1.281-0.125v0.625c-0.375,0.125-0.808,0.188-1.297,0.188
		c-0.75,0-1.304-0.2-1.66-0.602c-0.357-0.401-0.535-1.031-0.535-1.891v-5.484h-1.258v-0.453l1.258-0.352l0.391-1.922h0.398v2.055
		h2.492v0.672h-2.492v5.375c0,0.651,0.114,1.133,0.344,1.445C79.776,427.069,80.135,427.225,80.625,427.225z"/>
	<path style="fill:#444444;" d="M91.242,419.1c0.359,0,0.745,0.036,1.156,0.109l-0.148,0.742c-0.354-0.089-0.722-0.133-1.102-0.133
		c-0.724,0-1.318,0.308-1.781,0.922c-0.464,0.614-0.695,1.391-0.695,2.328v4.688h-0.773v-8.492h0.656l0.078,1.531h0.055
		c0.349-0.625,0.721-1.063,1.117-1.316C90.2,419.226,90.679,419.1,91.242,419.1z"/>
	<path style="fill:#444444;" d="M97.554,427.913c-1.234,0-2.197-0.38-2.887-1.141c-0.69-0.761-1.035-1.825-1.035-3.195
		c0-1.354,0.333-2.438,1-3.254c0.667-0.815,1.565-1.223,2.695-1.223c1,0,1.789,0.349,2.367,1.047s0.867,1.646,0.867,2.844v0.625
		h-6.117c0.01,1.167,0.282,2.058,0.816,2.672c0.534,0.614,1.298,0.922,2.293,0.922c0.484,0,0.91-0.034,1.277-0.102
		s0.832-0.214,1.395-0.438v0.703c-0.479,0.208-0.922,0.351-1.328,0.426S98.044,427.913,97.554,427.913z M97.328,419.788
		c-0.818,0-1.474,0.27-1.969,0.809c-0.495,0.539-0.784,1.316-0.867,2.332h5.25c0-0.984-0.214-1.754-0.641-2.309
		C98.674,420.065,98.083,419.788,97.328,419.788z"/>
	<path style="fill:#444444;" d="M103.679,427.756h-0.773V415.6h0.773V427.756z"/>
	<path style="fill:#444444;" d="M111.679,427.756l-0.195-1.344h-0.063c-0.427,0.547-0.866,0.934-1.316,1.16
		c-0.451,0.227-0.983,0.34-1.598,0.34c-0.833,0-1.482-0.214-1.945-0.641c-0.464-0.427-0.695-1.019-0.695-1.773
		c0-0.828,0.345-1.472,1.035-1.93c0.69-0.458,1.688-0.7,2.996-0.727l1.617-0.047v-0.563c0-0.808-0.164-1.417-0.492-1.828
		s-0.857-0.617-1.586-0.617c-0.787,0-1.602,0.219-2.445,0.656l-0.289-0.672c0.932-0.438,1.854-0.656,2.766-0.656
		c0.932,0,1.629,0.242,2.09,0.727s0.691,1.239,0.691,2.266v5.648H111.679z M108.554,427.209c0.906,0,1.621-0.259,2.145-0.777
		s0.785-1.238,0.785-2.16v-0.836L110,423.499c-1.193,0.058-2.043,0.243-2.551,0.559s-0.762,0.806-0.762,1.473
		c0,0.531,0.163,0.944,0.488,1.238C107.501,427.062,107.961,427.209,108.554,427.209z"/>
	<path style="fill:#444444;" d="M117.242,427.225c0.489,0,0.917-0.042,1.281-0.125v0.625c-0.375,0.125-0.808,0.188-1.297,0.188
		c-0.75,0-1.304-0.2-1.66-0.602c-0.357-0.401-0.535-1.031-0.535-1.891v-5.484h-1.258v-0.453l1.258-0.352l0.391-1.922h0.398v2.055
		h2.492v0.672h-2.492v5.375c0,0.651,0.114,1.133,0.344,1.445C116.393,427.069,116.752,427.225,117.242,427.225z"/>
	<path style="fill:#444444;" d="M123.789,427.913c-1.234,0-2.197-0.38-2.887-1.141c-0.69-0.761-1.035-1.825-1.035-3.195
		c0-1.354,0.333-2.438,1-3.254c0.667-0.815,1.565-1.223,2.695-1.223c1,0,1.789,0.349,2.367,1.047s0.867,1.646,0.867,2.844v0.625
		h-6.117c0.01,1.167,0.282,2.058,0.816,2.672c0.534,0.614,1.298,0.922,2.293,0.922c0.484,0,0.91-0.034,1.277-0.102
		s0.832-0.214,1.395-0.438v0.703c-0.479,0.208-0.922,0.351-1.328,0.426S124.278,427.913,123.789,427.913z M123.562,419.788
		c-0.818,0-1.474,0.27-1.969,0.809c-0.495,0.539-0.784,1.316-0.867,2.332h5.25c0-0.984-0.214-1.754-0.641-2.309
		C124.908,420.065,124.317,419.788,123.562,419.788z"/>
	<path style="fill:#444444;" d="M132.25,419.1c0.614,0,1.146,0.112,1.594,0.336c0.448,0.224,0.849,0.606,1.203,1.148h0.047
		c-0.031-0.656-0.047-1.3-0.047-1.93V415.6h0.766v12.156h-0.508l-0.195-1.297h-0.063c-0.646,0.969-1.573,1.453-2.781,1.453
		c-1.172,0-2.068-0.364-2.688-1.094c-0.62-0.729-0.93-1.792-0.93-3.188c0-1.469,0.307-2.591,0.922-3.367
		C130.184,419.488,131.078,419.1,132.25,419.1z M132.25,419.803c-0.927,0-1.624,0.325-2.09,0.977
		c-0.466,0.651-0.699,1.597-0.699,2.836c0,2.406,0.935,3.609,2.805,3.609c0.958,0,1.661-0.278,2.109-0.836
		c0.448-0.558,0.672-1.477,0.672-2.758v-0.133c0-1.313-0.22-2.257-0.66-2.832C133.946,420.091,133.234,419.803,132.25,419.803z"/>
	<path style="fill:#444444;" d="M145.062,427.225c0.489,0,0.917-0.042,1.281-0.125v0.625c-0.375,0.125-0.808,0.188-1.297,0.188
		c-0.75,0-1.304-0.2-1.66-0.602c-0.357-0.401-0.535-1.031-0.535-1.891v-5.484h-1.258v-0.453l1.258-0.352l0.391-1.922h0.398v2.055
		h2.492v0.672h-2.492v5.375c0,0.651,0.114,1.133,0.344,1.445C144.213,427.069,144.573,427.225,145.062,427.225z"/>
	<path style="fill:#444444;" d="M155.203,423.499c0,1.386-0.336,2.468-1.008,3.246s-1.599,1.168-2.781,1.168
		c-0.745,0-1.401-0.18-1.969-0.539c-0.568-0.359-1.003-0.875-1.305-1.547c-0.302-0.672-0.453-1.448-0.453-2.328
		c0-1.386,0.336-2.465,1.008-3.238s1.594-1.16,2.766-1.16c1.167,0,2.082,0.392,2.746,1.176S155.203,422.134,155.203,423.499z
		 M148.5,423.499c0,1.167,0.256,2.077,0.77,2.73c0.513,0.653,1.238,0.98,2.176,0.98s1.663-0.327,2.176-0.98
		c0.513-0.653,0.77-1.563,0.77-2.73c0-1.172-0.259-2.081-0.777-2.727c-0.519-0.646-1.246-0.969-2.184-0.969s-1.66,0.321-2.168,0.965
		S148.5,422.322,148.5,423.499z"/>
	<path style="fill:#444444;" d="M168.734,423.499c0,1.386-0.336,2.468-1.008,3.246s-1.599,1.168-2.781,1.168
		c-0.745,0-1.401-0.18-1.969-0.539c-0.568-0.359-1.003-0.875-1.305-1.547c-0.302-0.672-0.453-1.448-0.453-2.328
		c0-1.386,0.336-2.465,1.008-3.238s1.594-1.16,2.766-1.16c1.167,0,2.082,0.392,2.746,1.176S168.734,422.134,168.734,423.499z
		 M162.031,423.499c0,1.167,0.256,2.077,0.77,2.73c0.513,0.653,1.238,0.98,2.176,0.98s1.663-0.327,2.176-0.98
		c0.513-0.653,0.77-1.563,0.77-2.73c0-1.172-0.259-2.081-0.777-2.727c-0.519-0.646-1.246-0.969-2.184-0.969s-1.66,0.321-2.168,0.965
		S162.031,422.322,162.031,423.499z"/>
	<path style="fill:#444444;" d="M173.328,427.225c0.489,0,0.917-0.042,1.281-0.125v0.625c-0.375,0.125-0.808,0.188-1.297,0.188
		c-0.75,0-1.304-0.2-1.66-0.602s-0.535-1.031-0.535-1.891v-5.484h-1.258v-0.453l1.258-0.352l0.391-1.922h0.398v2.055h2.492v0.672
		h-2.492v5.375c0,0.651,0.114,1.133,0.344,1.445S172.839,427.225,173.328,427.225z"/>
	<path style="fill:#444444;" d="M182.367,427.756v-5.508c0-0.854-0.18-1.476-0.539-1.863s-0.917-0.582-1.672-0.582
		c-1.016,0-1.759,0.257-2.23,0.77s-0.707,1.345-0.707,2.496v4.688h-0.773V415.6h0.773v3.867l-0.039,1.086h0.055
		c0.317-0.511,0.719-0.88,1.203-1.109s1.086-0.344,1.805-0.344c1.927,0,2.891,1.034,2.891,3.102v5.555H182.367z"/>
	<path style="fill:#444444;" d="M189.312,427.913c-1.234,0-2.196-0.38-2.887-1.141s-1.035-1.825-1.035-3.195
		c0-1.354,0.333-2.438,1-3.254s1.565-1.223,2.695-1.223c1,0,1.789,0.349,2.367,1.047s0.867,1.646,0.867,2.844v0.625h-6.117
		c0.011,1.167,0.282,2.058,0.816,2.672s1.298,0.922,2.293,0.922c0.484,0,0.91-0.034,1.277-0.102s0.832-0.214,1.395-0.438v0.703
		c-0.479,0.208-0.922,0.351-1.328,0.426S189.802,427.913,189.312,427.913z M189.086,419.788c-0.817,0-1.474,0.27-1.969,0.809
		s-0.784,1.316-0.867,2.332h5.25c0-0.984-0.214-1.754-0.641-2.309S189.841,419.788,189.086,419.788z"/>
	<path style="fill:#444444;" d="M198.008,419.1c0.359,0,0.745,0.036,1.156,0.109l-0.148,0.742c-0.354-0.089-0.722-0.133-1.102-0.133
		c-0.724,0-1.317,0.308-1.781,0.922s-0.695,1.391-0.695,2.328v4.688h-0.773v-8.492h0.656l0.078,1.531h0.055
		c0.349-0.625,0.722-1.063,1.117-1.316S197.445,419.1,198.008,419.1z"/>
	<path style="fill:#444444;" d="M206.156,425.545c0,0.761-0.289,1.345-0.867,1.754s-1.398,0.613-2.461,0.613
		c-1.136,0-2.036-0.175-2.703-0.523v-0.836c0.854,0.427,1.755,0.641,2.703,0.641c0.839,0,1.476-0.14,1.91-0.418
		s0.652-0.649,0.652-1.113c0-0.427-0.173-0.786-0.52-1.078s-0.915-0.578-1.707-0.859c-0.849-0.308-1.445-0.571-1.789-0.793
		s-0.603-0.472-0.777-0.75s-0.262-0.618-0.262-1.02c0-0.636,0.267-1.138,0.801-1.508s1.28-0.555,2.238-0.555
		c0.917,0,1.786,0.172,2.609,0.516l-0.289,0.703c-0.833-0.344-1.606-0.516-2.32-0.516c-0.692,0-1.242,0.114-1.648,0.344
		s-0.609,0.547-0.609,0.953c0,0.442,0.157,0.797,0.473,1.063s0.931,0.563,1.848,0.891c0.766,0.276,1.323,0.524,1.672,0.746
		s0.61,0.473,0.785,0.754S206.156,425.166,206.156,425.545z"/>
	<path style="fill:#444444;" d="M208.187,427.147c0-0.511,0.208-0.766,0.625-0.766c0.427,0,0.641,0.255,0.641,0.766
		s-0.214,0.766-0.641,0.766C208.395,427.913,208.187,427.658,208.187,427.147z"/>
</g>
<g>
	<linearGradient id="rect826_7_" gradientUnits="userSpaceOnUse" x1="84.364" y1="121.0552" x2="84.364" y2="0">
		<stop  offset="0.08" style="stop-color:#CAF0F8"/>
		<stop  offset="1" style="stop-color:#0096C7"/>
	</linearGradient>
	<rect id="rect826_3_" x="-0.001" style="fill:url(#rect826_7_);" width="168.729" height="121.055"/>
	<ellipse id="path860_3_" style="fill:#E9D8A6;enable-background:new    ;" cx="36.414" cy="22.642" rx="11.144" ry="10.516"/>
	<rect id="rect862_3_" x="11.728" y="9.521" style="fill:none;" width="142.966" height="100.536"/>
	<line style="fill:none;" x1="16.512" y1="105.05" x2="157.276" y2="105.05"/>
	<polygon style="opacity:0.6;fill:#FFFFFF;" points="70.708,80.746 112.033,32.797 163.455,108.267 4.345,108.267 59.401,69.441 	
		"/>
</g>
<g>
	<linearGradient id="rect826_8_" gradientUnits="userSpaceOnUse" x1="255.7957" y1="121.0552" x2="255.7957" y2="0">
		<stop  offset="0.08" style="stop-color:#FFB703"/>
		<stop  offset="0.4967" style="stop-color:#859858"/>
		<stop  offset="0.8448" style="stop-color:#26809C"/>
		<stop  offset="1" style="stop-color:#0077B6"/>
	</linearGradient>
	<rect id="rect826_4_" x="171.431" style="fill:url(#rect826_8_);" width="168.729" height="121.055"/>
	<ellipse id="path860_4_" style="fill:#FAA307;enable-background:new    ;" cx="220.845" cy="30.642" rx="11.145" ry="10.516"/>
	<rect id="rect862_4_" x="183.16" y="9.521" style="fill:none;" width="142.965" height="100.536"/>
	<line style="fill:none;" x1="187.943" y1="105.05" x2="328.707" y2="105.05"/>
	<polygon style="opacity:0.6;fill:#FFFFFF;" points="242.14,80.746 283.465,32.797 334.886,108.267 175.777,108.267 230.832,69.441 
			"/>
</g>
<g>
	<linearGradient id="rect826_9_" gradientUnits="userSpaceOnUse" x1="84.3645" y1="245.1973" x2="84.3645" y2="124.1421">
		<stop  offset="0.08" style="stop-color:#B5179E"/>
		<stop  offset="1" style="stop-color:#03045E"/>
	</linearGradient>
	<rect id="rect826_2_" x="0" y="124.142" style="fill:url(#rect826_9_);" width="168.729" height="121.055"/>
	<rect id="rect862_2_" x="11.728" y="133.663" style="fill:none;" width="142.966" height="100.536"/>
	<line style="fill:none;" x1="16.512" y1="229.192" x2="157.276" y2="229.192"/>
	<polygon style="opacity:0.6;fill:#FFFFFF;" points="70.709,204.888 112.034,156.939 163.456,232.409 4.345,232.409 59.401,193.583 
			"/>
</g>
<g>
	<linearGradient id="rect826_10_" gradientUnits="userSpaceOnUse" x1="255.7957" y1="245.1973" x2="255.7957" y2="124.1421">
		<stop  offset="0.08" style="stop-color:#DC2F02"/>
		<stop  offset="0.1848" style="stop-color:#DB3206"/>
		<stop  offset="0.2995" style="stop-color:#D73B14"/>
		<stop  offset="0.419" style="stop-color:#D14B2A"/>
		<stop  offset="0.5417" style="stop-color:#C86048"/>
		<stop  offset="0.667" style="stop-color:#BD7B70"/>
		<stop  offset="0.7945" style="stop-color:#AF9DA0"/>
		<stop  offset="0.9211" style="stop-color:#9FC4D8"/>
		<stop  offset="1" style="stop-color:#94DFFF"/>
	</linearGradient>
	<rect id="rect826_1_" x="171.431" y="124.142" style="fill:url(#rect826_10_);" width="168.729" height="121.055"/>
	<ellipse id="path860_1_" style="fill:#E85D04;enable-background:new    ;" cx="77.687" cy="179.086" rx="11.145" ry="10.516"/>
	<rect id="rect862_1_" x="183.16" y="133.663" style="fill:none;" width="142.965" height="100.536"/>
	<line style="fill:none;" x1="187.943" y1="229.192" x2="328.707" y2="229.192"/>
	<polygon style="opacity:0.6;fill:#FFFFFF;" points="242.14,204.888 283.465,156.939 334.886,232.409 175.777,232.409 
		230.832,193.583 	"/>
</g>
<g>
	<linearGradient id="rect826_11_" gradientUnits="userSpaceOnUse" x1="84.3645" y1="369.3882" x2="84.3645" y2="248.3335">
		<stop  offset="0.08" style="stop-color:#0096C7"/>
		<stop  offset="1" style="stop-color:#03045E"/>
	</linearGradient>
	<rect id="rect826_6_" x="0" y="248.333" style="fill:url(#rect826_11_);" width="168.729" height="121.055"/>
	<ellipse id="path860_6_" style="fill:#E9D8A6;enable-background:new    ;" cx="146.132" cy="268.372" rx="11.144" ry="10.517"/>
	<rect id="rect862_6_" x="11.728" y="257.855" style="fill:none;" width="142.966" height="100.535"/>
	<line style="fill:none;" x1="16.512" y1="353.384" x2="157.276" y2="353.384"/>
	<polygon style="opacity:0.6;fill:#FFFFFF;" points="70.709,329.08 112.034,281.13 163.456,356.601 4.345,356.601 59.401,317.775 	
		"/>
</g>
<g>
	<linearGradient id="rect826_12_" gradientUnits="userSpaceOnUse" x1="255.7957" y1="369.3882" x2="255.7957" y2="248.3335">
		<stop  offset="0.08" style="stop-color:#03045E"/>
		<stop  offset="1" style="stop-color:#14213D"/>
	</linearGradient>
	<rect id="rect826_5_" x="171.431" y="248.333" style="fill:url(#rect826_12_);" width="168.729" height="121.055"/>
	<ellipse id="path860_5_" style="fill:#FEFAE0;enable-background:new    ;" cx="240.923" cy="270.975" rx="11.145" ry="10.517"/>
	<rect id="rect862_5_" x="183.16" y="257.855" style="fill:none;" width="142.965" height="100.535"/>
	<line style="fill:none;" x1="187.943" y1="353.384" x2="328.707" y2="353.384"/>
	<polygon style="opacity:0.6;fill:#FFFFFF;" points="242.14,329.08 283.465,281.13 334.886,356.601 175.777,356.601 
		230.832,317.775 	"/>
</g>
<g>
	<rect x="0" y="448.851" style="fill:none;" width="340.16" height="19.675"/>
	<path style="fill:#444444;" d="M111.05,448.851h1.692l1.566,10.477l1.962-10.423h1.44l1.98,10.477l1.53-10.53h1.656l-2.34,14.58
		h-1.476l-2.034-10.8l-2.052,10.8h-1.548L111.05,448.851z"/>
	<path style="fill:#444444;" d="M124.657,448.851h2.034v6.3h3.744v-6.3h2.034v14.58h-2.034v-6.822h-3.744v6.822h-2.034V448.851z"/>
	<path style="fill:#444444;" d="M134.864,448.851h1.998v14.58h-1.998V448.851z"/>
	<path style="fill:#444444;" d="M139.832,462.306c-0.588-0.857-0.882-2.043-0.882-3.555v-5.148c0-1.596,0.288-2.808,0.864-3.636
		s1.596-1.242,3.06-1.242c1.308,0,2.247,0.354,2.817,1.063c0.57,0.708,0.855,1.752,0.855,3.132v1.151h-1.926v-1.025
		c0-0.672-0.03-1.188-0.09-1.548c-0.06-0.36-0.213-0.648-0.459-0.864s-0.639-0.324-1.179-0.324c-0.552,0-0.963,0.117-1.233,0.351
		c-0.27,0.234-0.447,0.559-0.531,0.973s-0.126,0.969-0.126,1.665v5.777c0,0.745,0.06,1.326,0.18,1.746
		c0.12,0.421,0.315,0.721,0.585,0.9s0.645,0.27,1.125,0.27c0.516,0,0.9-0.113,1.152-0.342c0.252-0.228,0.411-0.54,0.477-0.936
		c0.066-0.396,0.099-0.937,0.099-1.62v-1.08h1.926v1.08c0,1.452-0.273,2.564-0.819,3.339c-0.546,0.774-1.497,1.161-2.853,1.161
		C141.434,463.593,140.42,463.165,139.832,462.306z"/>
	<path style="fill:#444444;" d="M148.489,448.851h2.034v6.3h3.744v-6.3h2.034v14.58h-2.034v-6.822h-3.744v6.822h-2.034V448.851z"/>
	<path style="fill:#444444;" d="M163.366,462.378c-0.618-0.811-0.927-1.983-0.927-3.52v-5.525c0-1.513,0.312-2.658,0.936-3.438
		c0.624-0.779,1.644-1.17,3.06-1.17s2.433,0.394,3.051,1.179c0.618,0.786,0.927,1.93,0.927,3.43v5.544
		c0,1.512-0.312,2.676-0.936,3.492c-0.624,0.815-1.638,1.224-3.042,1.224C165.007,463.593,163.984,463.188,163.366,462.378z
		 M167.965,461.325c0.264-0.443,0.396-1.115,0.396-2.016v-6.39c0-0.889-0.132-1.545-0.396-1.972
		c-0.264-0.426-0.774-0.639-1.53-0.639c-0.768,0-1.284,0.213-1.548,0.639c-0.264,0.427-0.396,1.083-0.396,1.972v6.39
		c0,0.9,0.132,1.572,0.396,2.016c0.264,0.444,0.78,0.666,1.548,0.666C167.191,461.991,167.701,461.769,167.965,461.325z"/>
	<path style="fill:#444444;" d="M172.411,448.851h1.386l4.141,9.684v-9.684h1.691v14.58h-1.296l-4.193-9.954v9.954h-1.729V448.851z"
		/>
	<path style="fill:#444444;" d="M181.915,448.851h5.652v1.512h-3.618v4.824h2.934v1.44h-2.934v5.346h3.654v1.458h-5.688V448.851z"/>
	<path style="fill:#444444;" d="M193.47,448.851h1.998v14.58h-1.998V448.851z"/>
	<path style="fill:#444444;" d="M198.466,462.459c-0.643-0.756-0.999-1.794-1.071-3.114l1.8-0.486
		c0.06,0.937,0.243,1.692,0.549,2.269c0.307,0.576,0.813,0.863,1.521,0.863c0.527,0,0.927-0.146,1.196-0.44
		c0.271-0.294,0.405-0.717,0.405-1.27c0-0.588-0.126-1.076-0.378-1.467c-0.252-0.39-0.654-0.837-1.206-1.341l-2.448-2.16
		c-0.492-0.443-0.849-0.915-1.07-1.413c-0.223-0.498-0.333-1.101-0.333-1.809c0-1.08,0.312-1.911,0.936-2.493
		s1.482-0.873,2.574-0.873c1.14,0,1.992,0.306,2.556,0.918c0.564,0.612,0.906,1.561,1.026,2.844l-1.729,0.469
		c-0.06-0.828-0.216-1.479-0.468-1.953c-0.252-0.475-0.696-0.711-1.332-0.711c-1.164,0-1.746,0.534-1.746,1.602
		c0,0.432,0.072,0.789,0.217,1.071c0.144,0.282,0.39,0.585,0.737,0.909l2.466,2.159c0.637,0.589,1.144,1.21,1.521,1.863
		c0.378,0.654,0.567,1.396,0.567,2.224c0,1.067-0.324,1.914-0.973,2.537c-0.647,0.624-1.488,0.937-2.52,0.937
		C200.04,463.593,199.107,463.215,198.466,462.459z"/>
	<path style="fill:#444444;" d="M210.57,448.851h1.998v14.58h-1.998V448.851z"/>
	<path style="fill:#444444;" d="M216.42,450.363h-2.646v-1.512h7.254v1.512h-2.574v13.068h-2.034V450.363z"/>
	<path style="fill:#444444;" d="M223.908,457.545c1.056-0.912,1.856-1.765,2.403-2.557c0.546-0.792,0.818-1.667,0.818-2.628
		c0-0.588-0.149-1.062-0.449-1.422c-0.301-0.359-0.727-0.54-1.278-0.54c-0.48,0-0.861,0.135-1.144,0.405
		c-0.281,0.27-0.423,0.627-0.423,1.071c0,0.216,0.042,0.516,0.126,0.899l-1.8,0.342c-0.132-0.371-0.198-0.749-0.198-1.134
		c0-0.972,0.304-1.758,0.909-2.357c0.605-0.601,1.449-0.9,2.529-0.9c1.14,0,2.027,0.324,2.664,0.972
		c0.636,0.648,0.954,1.555,0.954,2.719c0,0.768-0.145,1.473-0.433,2.114c-0.288,0.643-0.672,1.23-1.151,1.765
		c-0.48,0.534-1.087,1.113-1.818,1.736v1.746h-1.71V457.545z M223.818,461.451h1.926v1.98h-1.926V461.451z"/>
</g>
<ellipse id="path860_2_" style="fill:#E85D04;enable-background:new    ;" cx="328.707" cy="133.663" rx="5.227" ry="4.933"/>
</svg>
